<svg xmlns="http://www.w3.org/2000/svg" width="20.167" height="22" viewBox="0 0 20.167 22">
  <path id="address-book" d="M16.583,0H7.417A4.583,4.583,0,0,0,3.222,2.75H1.917a.917.917,0,1,0,0,1.833h.917V6.417H1.917a.917.917,0,1,0,0,1.833h.917v1.833H1.917a.917.917,0,1,0,0,1.833h.917V13.75H1.917a.917.917,0,1,0,0,1.833h.917v1.833H1.917a.917.917,0,0,0,0,1.833H3.222A4.583,4.583,0,0,0,7.417,22h9.167a4.589,4.589,0,0,0,4.583-4.583V4.583A4.589,4.589,0,0,0,16.583,0Zm2.75,17.417a2.75,2.75,0,0,1-2.75,2.75H7.417a2.75,2.75,0,0,1-2.75-2.75V4.583a2.75,2.75,0,0,1,2.75-2.75h9.167a2.75,2.75,0,0,1,2.75,2.75ZM12,11A2.75,2.75,0,1,0,9.25,8.25,2.75,2.75,0,0,0,12,11Zm4.583,5.5a.917.917,0,1,1-1.833,0,2.75,2.75,0,0,0-5.5,0,.917.917,0,1,1-1.833,0C7.61,10.443,16.392,10.444,16.583,16.5Z" transform="translate(-1)" fill="#262f6a"/>
</svg>
