<svg xmlns="http://www.w3.org/2000/svg" width="15.892" height="12.633" viewBox="0 0 15.892 12.633">
  <g id="dashboard" transform="translate(0 -52.499)">
    <g id="Group_11049" data-name="Group 11049" transform="translate(0 52.499)">
      <g id="Group_11048" data-name="Group 11048">
        <path id="Path_2716" data-name="Path 2716" d="M203.45,123.68a.621.621,0,0,0-.789-.074c-.929.633-5.588,3.817-6.089,4.317a1.862,1.862,0,0,0,2.634,2.634c.5-.5,3.684-5.16,4.317-6.089A.621.621,0,0,0,203.45,123.68Zm-5.121,6a.621.621,0,0,1-.878-.878c.195-.192,1.517-1.136,3.145-2.267C199.464,128.162,198.521,129.485,198.329,129.679Z" transform="translate(-189.944 -121.294)"/>
        <path id="Path_2717" data-name="Path 2717" d="M2.863,63.332l-.766.374a6.673,6.673,0,0,1-.418-5.641l.878.421a.621.621,0,1,0,.537-1.119l-.867-.416a6.713,6.713,0,0,1,5.1-3.182V54.7a.621.621,0,0,0,1.242,0v-.934a6.627,6.627,0,0,1,2.135.562.621.621,0,1,0,.511-1.132A7.939,7.939,0,0,0,1.346,64.856a.621.621,0,0,0,.788.213l1.273-.621a.621.621,0,1,0-.544-1.116Z" transform="translate(0 -52.499)"/>
        <path id="Path_2718" data-name="Path 2718" d="M393.081,191.859a.621.621,0,1,0-1.132.511,6.683,6.683,0,0,1-.267,6.021l-.8-.381a.621.621,0,1,0-.534,1.121l1.3.621a.621.621,0,0,0,.783-.215,7.927,7.927,0,0,0,.646-7.677Z" transform="translate(-377.89 -187.18)"/>
      </g>
    </g>
  </g>
</svg>
