<svg xmlns="http://www.w3.org/2000/svg" width="19.973" height="22.312" viewBox="0 0 19.973 22.312">
  <g id="Group_44610" data-name="Group 44610" transform="translate(0)">
    <path id="path2888" d="M10.548.264A8.432,8.432,0,1,0,18.979,8.7,8.438,8.438,0,0,0,10.548.264Zm0,.7A7.729,7.729,0,1,1,2.82,8.7,7.724,7.724,0,0,1,10.548.966Z" transform="translate(-0.562 -0.264)" fill="#262f6a"/>
    <path id="path2890" d="M10.028,1.852A6.324,6.324,0,1,0,16.35,8.177a6.329,6.329,0,0,0-6.322-6.325Zm0,.7A5.621,5.621,0,1,1,4.405,8.177a5.616,5.616,0,0,1,5.622-5.622Z" transform="translate(-0.041 0.257)" fill="#262f6a"/>
    <path id="path2892" d="M4.291,10.252l-3.3,5.713a.351.351,0,0,0,.373.519l3.361-.664,1.1,3.244a.351.351,0,0,0,.638.062L9.7,13.53l-.609-.353L6.246,18.1l-.954-2.8a.351.351,0,0,0-.4-.231l-2.9.573L4.9,10.6Z" transform="translate(-0.946 3.009)" fill="#262f6a"/>
    <path id="path2894" d="M14.8,10.252,14.2,10.6l2.91,5.039-2.9-.573a.351.351,0,0,0-.4.231l-.954,2.8L10,13.177l-.609.353,3.231,5.6a.351.351,0,0,0,.638-.062l1.1-3.244,3.361.664a.351.351,0,0,0,.373-.519Z" transform="translate(1.824 3.009)" fill="#262f6a"/>
    <path id="path2896" d="M9.373,3.668a.381.381,0,0,0-.358.176A15.742,15.742,0,0,0,7.923,5.5a16.073,16.073,0,0,0-1.914.524.384.384,0,0,0-.277.288.381.381,0,0,0,.054.394A16.242,16.242,0,0,0,7.029,8.261a16.551,16.551,0,0,0-.093,1.981.456.456,0,0,0,.581.423,17.168,17.168,0,0,0,1.857-.7,18.641,18.641,0,0,0,1.857.7.456.456,0,0,0,.581-.423,16.7,16.7,0,0,0-.093-1.981c.359-.42.743-.87,1.081-1.3a.687.687,0,0,0,.215-.643.4.4,0,0,0-.277-.288A15.206,15.206,0,0,0,10.823,5.5a18.613,18.613,0,0,0-1.092-1.66.381.381,0,0,0-.358-.176Zm0,.853c.309.45.567.908.861,1.356a.6.6,0,0,0,.176.194.579.579,0,0,0,.236.106c.525.14,1.038.254,1.556.4-.329.436-.688.821-1.022,1.24a.637.637,0,0,0-.158.485c.026.544.077,1.067.1,1.605a17.47,17.47,0,0,0-1.75-.646.579.579,0,0,0-.254.054c-.509.192-.992.4-1.5.591.017-.547.076-1.069.1-1.605a.637.637,0,0,0-.158-.485c-.333-.42-.728-.866-1.022-1.24.523-.155,1.039-.26,1.556-.4a.579.579,0,0,0,.236-.106.6.6,0,0,0,.176-.194c.185-.273.366-.579.524-.838.121-.2.239-.38.337-.519Z" transform="translate(0.613 0.852)" fill="#262f6a"/>
  </g>
</svg>
