<svg xmlns="http://www.w3.org/2000/svg" width="22.111" height="20.056" viewBox="0 0 22.111 20.056">
  <path id="Path_2868" data-name="Path 2868" d="M15.665,22.543a6.376,6.376,0,0,0-2.929.7,6.5,6.5,0,0,0-1.681,1.239,6.5,6.5,0,0,0-1.681-1.239,6.377,6.377,0,0,0-2.929-.7A6.453,6.453,0,0,0,0,28.989c0,2.517,1.33,5.191,3.952,7.947a38.211,38.211,0,0,0,6.733,5.423l.371.24.371-.24a38.212,38.212,0,0,0,6.733-5.423c2.622-2.756,3.952-5.43,3.952-7.947A6.453,6.453,0,0,0,15.665,22.543Zm1.5,13.45a36.166,36.166,0,0,1-6.113,4.975,36.166,36.166,0,0,1-6.113-4.975c-2.372-2.493-3.575-4.849-3.575-7a5.078,5.078,0,0,1,9.141-3.047l.547.728.547-.728a5.078,5.078,0,0,1,9.141,3.047C20.744,31.144,19.541,33.5,17.169,35.993Z" transform="translate(0 -22.543)" fill="#262f6a"/>
</svg>
