<svg xmlns="http://www.w3.org/2000/svg" width="14.361" height="14.874" viewBox="0 0 14.361 14.874">
  <g id="Layer_12" data-name="Layer 12" transform="translate(-2 -1)">
    <path id="Path_2721" data-name="Path 2721" d="M16.361,8.694A7.181,7.181,0,1,1,2,8.694,7.5,7.5,0,0,1,4.211,3.354a.513.513,0,1,1,.708.723A6.468,6.468,0,0,0,3.026,8.694a6.155,6.155,0,1,0,12.31,0,6.468,6.468,0,0,0-1.893-4.616.513.513,0,0,1,.708-.739,7.5,7.5,0,0,1,2.211,5.355ZM9.181,9.719a.513.513,0,0,0,.513-.513V1.513a.513.513,0,0,0-1.026,0V9.206A.513.513,0,0,0,9.181,9.719Z"/>
  </g>
</svg>
