<svg xmlns="http://www.w3.org/2000/svg" width="22.029" height="22.816" viewBox="0 0 22.029 22.816">
  <g id="Layer_12" data-name="Layer 12" transform="translate(0)">
    <path id="Path_2721" data-name="Path 2721" d="M24.029,12.8A11.014,11.014,0,1,1,2,12.8a11.51,11.51,0,0,1,3.391-8.19A.787.787,0,1,1,6.477,5.72a9.921,9.921,0,0,0-2.9,7.081,9.441,9.441,0,1,0,18.882,0,9.921,9.921,0,0,0-2.9-7.081.787.787,0,0,1,1.086-1.133A11.51,11.51,0,0,1,24.029,12.8ZM13.014,14.375a.787.787,0,0,0,.787-.787V1.787a.787.787,0,1,0-1.573,0v11.8A.787.787,0,0,0,13.014,14.375Z" transform="translate(-2 -1)" fill="#262f6a"/>
  </g>
</svg>
