<svg xmlns="http://www.w3.org/2000/svg" width="24.64" height="24.639" viewBox="0 0 24.64 24.639">
  <g id="Group_44617" data-name="Group 44617" transform="translate(0 0)">
    <path id="Path_2916" data-name="Path 2916" d="M386.069,36.525V32.419a.411.411,0,0,0-.411-.411h-1.643v.821h1.232v3.7Zm0,0" transform="translate(-364.304 -30.364)" fill="#262f6a"/>
    <path id="Path_2918" data-name="Path 2918" d="M69.326.049C69.313.043,69.3.04,69.288.035a.408.408,0,0,0-.106-.021.157.157,0,0,0-.025-.006H56.426a.411.411,0,0,0-.411.411V1.24h.821V.829H68.745V4.114a.411.411,0,0,0,.411.411h3.285V6.578h.821V4.114c0-.009,0-.016-.005-.025a.4.4,0,0,0-.021-.106c0-.013-.008-.025-.014-.038a.408.408,0,0,0-.082-.12l-3.7-3.7a.411.411,0,0,0-.119-.079ZM71.861,3.7H69.567V1.41Zm0,0" transform="translate(-53.14 -0.007)" fill="#262f6a"/>
    <g id="Group_44608" data-name="Group 44608" transform="translate(0 1.642)">
      <path id="Path_2917" data-name="Path 2917" d="M56.016,240.008v10.266a.411.411,0,0,0,.411.411H72.852a.411.411,0,0,0,.411-.411V247.4h-.821v2.464h-15.6v-9.855Zm0,0" transform="translate(-53.14 -229.329)" fill="#262f6a"/>
      <path id="Path_2919" data-name="Path 2919" d="M184.016,328.419V331.7a.411.411,0,0,0,.411.411h5.338v-.821h-4.928v-2.464h2.053v-.821h-2.464A.411.411,0,0,0,184.016,328.419Zm0,0" transform="translate(-174.57 -312.813)" fill="#262f6a"/>
      <path id="Path_2920" data-name="Path 2920" d="M216.016,360.008h2.464v.821h-2.464Zm0,0" transform="translate(-204.927 -343.17)" fill="#262f6a"/>
      <path id="Path_2921" data-name="Path 2921" d="M112.852,136.008a2.878,2.878,0,0,0-2.875,2.874v.041l-2.094,2.211-1.311-1.311a.41.41,0,0,0-.581,0l-3.7,3.7a.411.411,0,0,0,0,.581l5.749,5.749a.411.411,0,0,0,.581,0l1.232-1.232,2.174-2.173v6.4H96.016v.821h16.426a.411.411,0,0,0,.411-.411V143.4h-.821v1.883l-1.431-1.431,2.212-2.094h.041a2.874,2.874,0,1,0,0-5.749Zm-4.517,12.971-5.168-5.168.651-.651,5.168,5.168Zm3.115-3.115-1.883,1.883-5.168-5.168,1.883-1.883,1.036,1.036-.924.975a.411.411,0,0,0,.008.575l2.053,2.053a.411.411,0,0,0,.572.008l.975-.924Zm1.4-4.928h-.205a.411.411,0,0,0-.283.112l-3.611,3.419-1.486-1.486,3.421-3.611a.411.411,0,0,0,.111-.283v-.205a2.053,2.053,0,1,1,2.053,2.053Zm0,0" transform="translate(-91.087 -130.667)" fill="#262f6a"/>
      <path id="Path_2922" data-name="Path 2922" d="M152.016,232.008h4.106v.821h-4.106Zm0,0" transform="translate(-144.212 -221.741)" fill="#262f6a"/>
      <path id="Path_2923" data-name="Path 2923" d="M104.016,264.008h4.928v.821h-4.928Zm0,0" transform="translate(-98.676 -252.098)" fill="#262f6a"/>
      <path id="Path_2924" data-name="Path 2924" d="M176.016,200.008h4.928v.821h-4.928Zm0,0" transform="translate(-166.981 -191.383)" fill="#262f6a"/>
      <path id="Path_2925" data-name="Path 2925" d="M104.016,296.008h2.464v.821h-2.464Zm0,0" transform="translate(-98.676 -282.455)" fill="#262f6a"/>
      <path id="Path_2926" data-name="Path 2926" d="M104.016,328.008H107.3v.821h-3.285Zm0,0" transform="translate(-98.676 -312.813)" fill="#262f6a"/>
      <path id="Path_2927" data-name="Path 2927" d="M104.016,360.008H107.3v.821h-3.285Zm0,0" transform="translate(-98.676 -343.17)" fill="#262f6a"/>
      <path id="Path_2928" data-name="Path 2928" d="M104.016,392.008H107.3v.821h-3.285Zm0,0" transform="translate(-98.676 -373.529)" fill="#262f6a"/>
      <path id="Path_2929" data-name="Path 2929" d="M104.016,232.008h1.643v.821h-1.643Zm0,0" transform="translate(-98.676 -221.741)" fill="#262f6a"/>
      <path id="Path_2930" data-name="Path 2930" d="M168.016,296.008h1.643v.821h-1.643Zm0,0" transform="translate(-159.391 -282.455)" fill="#262f6a"/>
      <path id="Path_2931" data-name="Path 2931" d="M200.016,160.008h4.106v.821h-4.106Zm0,0" transform="translate(-189.749 -153.436)" fill="#262f6a"/>
      <path id="Path_2932" data-name="Path 2932" d="M4.919,41.85a4.928,4.928,0,0,0,4.919-4.755,1.086,1.086,0,0,0,.8.249,1.114,1.114,0,0,0,1.71,0,1.114,1.114,0,0,0,1.209-1.209,1.114,1.114,0,0,0,0-1.71,1.114,1.114,0,0,0-1.209-1.209,1.114,1.114,0,0,0-1.71,0,1.114,1.114,0,0,0-1.209,1.209,1.065,1.065,0,0,0-.164.169A4.928,4.928,0,1,0,4.919,41.85Zm5.119-6.841a.41.41,0,0,0,.233-.563.287.287,0,0,1,.384-.384.41.41,0,0,0,.563-.233.288.288,0,0,1,.542,0,.411.411,0,0,0,.563.233.287.287,0,0,1,.384.384.41.41,0,0,0,.233.563.288.288,0,0,1,0,.542.41.41,0,0,0-.233.563.276.276,0,0,1-.057.328.28.28,0,0,1-.329.057.41.41,0,0,0-.563.233.288.288,0,0,1-.542,0,.41.41,0,0,0-.23-.242.419.419,0,0,0-.157-.031.4.4,0,0,0-.176.041.287.287,0,0,1-.384-.384.411.411,0,0,0-.233-.563.287.287,0,0,1,0-.542ZM4.919,32.816A4.106,4.106,0,1,1,.812,36.922,4.106,4.106,0,0,1,4.919,32.816Zm0,0" transform="translate(0.01 -31.994)" fill="#262f6a"/>
      <path id="Path_2933" data-name="Path 2933" d="M35.591,87.039a.411.411,0,0,0,.581,0l4.106-4.106-.581-.581-3.816,3.816-.942-.942-.581.581Zm0,0" transform="translate(-32.595 -79.767)" fill="#262f6a"/>
    </g>
  </g>
</svg>
