<svg xmlns="http://www.w3.org/2000/svg" width="15.098" height="15.097" viewBox="0 0 15.098 15.097">
  <path id="phone-call_4_" data-name="phone-call (4)" d="M8.206.63A.63.63,0,0,1,8.836,0a6.308,6.308,0,0,1,6.3,6.3.63.63,0,1,1-1.26,0A5.046,5.046,0,0,0,8.836,1.26a.63.63,0,0,1-.63-.63Zm.63,3.15a2.52,2.52,0,0,1,2.52,2.52.63.63,0,1,0,1.26,0A3.784,3.784,0,0,0,8.836,2.52a.63.63,0,1,0,0,1.26Zm5.729,6.767a1.953,1.953,0,0,1,0,2.759l-.573.661C8.831,18.907-3.726,6.352,1.138,1.175l.725-.63A1.941,1.941,0,0,1,4.589.57c.02.02,1.187,1.536,1.187,1.536a1.953,1.953,0,0,1,0,2.7l-.73.917A8.053,8.053,0,0,0,9.409,10.1l.923-.734a1.953,1.953,0,0,1,2.7,0S14.546,10.527,14.565,10.547Zm-.867.916s-1.508-1.16-1.527-1.18a.693.693,0,0,0-.976,0c-.017.018-1.288,1.03-1.288,1.03a.63.63,0,0,1-.617.1,9.457,9.457,0,0,1-5.558-5.55.63.63,0,0,1,.091-.63s1.013-1.272,1.03-1.288a.693.693,0,0,0,0-.976c-.02-.019-1.18-1.528-1.18-1.528a.693.693,0,0,0-.951.025L2,2.092C-1.558,6.367,9.325,16.645,13.071,13.105l.574-.662a.706.706,0,0,0,.054-.981Z" transform="translate(-0.039 0.002)"/>
</svg>
