<svg xmlns="http://www.w3.org/2000/svg" width="18.586" height="22.303" viewBox="0 0 18.586 22.303">
  <g id="trash_1_" data-name="trash (1)" transform="translate(-2)">
    <path id="Path_3072" data-name="Path 3072" d="M19.657,3.717H16.776A4.655,4.655,0,0,0,12.222,0H10.364A4.655,4.655,0,0,0,5.81,3.717H2.929a.929.929,0,1,0,0,1.859h.929V17.657A4.652,4.652,0,0,0,8.505,22.3h5.576a4.652,4.652,0,0,0,4.646-4.646V5.576h.929a.929.929,0,1,0,0-1.859ZM10.364,1.859h1.859a2.793,2.793,0,0,1,2.629,1.859H7.735a2.793,2.793,0,0,1,2.629-1.859Zm6.505,15.8a2.788,2.788,0,0,1-2.788,2.788H8.505a2.788,2.788,0,0,1-2.788-2.788V5.576H16.869Z" fill="#f44336"/>
    <path id="Path_3073" data-name="Path 3073" d="M9.929,17.434a.929.929,0,0,0,.929-.929V10.929a.929.929,0,0,0-1.859,0v5.576A.929.929,0,0,0,9.929,17.434Z" transform="translate(-0.495 -0.707)" fill="#f44336"/>
    <path id="Path_3074" data-name="Path 3074" d="M13.929,17.434a.929.929,0,0,0,.929-.929V10.929a.929.929,0,1,0-1.859,0v5.576A.929.929,0,0,0,13.929,17.434Z" transform="translate(-0.778 -0.707)" fill="#f44336"/>
  </g>
</svg>
