<svg xmlns="http://www.w3.org/2000/svg" width="54.738" height="45.751" viewBox="0 0 54.738 45.751">
  <g id="upload" transform="translate(-0.997 -4.993)">
    <path id="Path_2723" data-name="Path 2723" d="M42.624,16.063a14.618,14.618,0,0,0-28.358-.016,14.636,14.636,0,0,0,1.372,29.209h5.489a1.83,1.83,0,1,0,0-3.659H15.639a10.977,10.977,0,0,1-.064-21.955,1.9,1.9,0,0,0,2.012-1.562,10.961,10.961,0,0,1,21.7,0,1.976,1.976,0,0,0,1.963,1.562,10.977,10.977,0,0,1,0,21.955H35.764a1.83,1.83,0,1,0,0,3.659h5.489a14.636,14.636,0,0,0,1.372-29.192Z" transform="translate(0 0)"/>
    <path id="Path_2724" data-name="Path 2724" d="M28.831,25.271a1.829,1.829,0,1,0,2.587-2.587l-9.148-9.148a1.83,1.83,0,0,0-2.587,0l-9.148,9.148a1.829,1.829,0,1,0,2.587,2.587l6.024-6.025V42.273a1.83,1.83,0,0,0,3.659,0V19.246Z" transform="translate(7.468 6.642)"/>
  </g>
</svg>
