<svg xmlns="http://www.w3.org/2000/svg" width="19.476" height="19.478" viewBox="0 0 19.476 19.478">
  <path id="user-pen" d="M7.3,9.738A4.869,4.869,0,1,0,2.435,4.869,4.874,4.874,0,0,0,7.3,9.738Zm0-8.115A3.246,3.246,0,1,1,4.058,4.869,3.249,3.249,0,0,1,7.3,1.623Zm1.42,11.54a5.687,5.687,0,0,0-7.1,5.5.812.812,0,1,1-1.623,0,7.309,7.309,0,0,1,9.13-7.073.812.812,0,0,1-.4,1.572ZM18.764,9.64a2.492,2.492,0,0,0-3.443,0L9.877,15.083a3.227,3.227,0,0,0-.951,2.3v1.287a.812.812,0,0,0,.812.812h1.287a3.225,3.225,0,0,0,2.3-.951l5.443-5.443a2.435,2.435,0,0,0,0-3.443Zm-1.148,2.3-5.444,5.443a1.609,1.609,0,0,1-1.148.476h-.476v-.476a1.612,1.612,0,0,1,.476-1.148l5.444-5.443a.83.83,0,0,1,1.148,0,.811.811,0,0,1,0,1.148Z" fill="#ff881b"/>
</svg>
