<svg id="Group_793" data-name="Group 793" xmlns="http://www.w3.org/2000/svg" width="20.694" height="21.142" viewBox="0 0 20.694 21.142">
  <path id="Path_128" data-name="Path 128" d="M0,21.142l1.78-5.454a10.5,10.5,0,0,1-1.423-5.3A10.281,10.281,0,0,1,10.526,0,10.281,10.281,0,0,1,20.694,10.389,10.281,10.281,0,0,1,10.526,20.778a9.952,9.952,0,0,1-4.731-1.193Z" fill="#2cb742"/>
  <path id="Path_129" data-name="Path 129" d="M24.732,20.2a7.408,7.408,0,0,0-2.2-1.943c-.392-.228-.865-.254-1.088.153a9.1,9.1,0,0,1-.706.788,1.3,1.3,0,0,1-1.87-.19l-1.42-1.451-1.42-1.451A1.364,1.364,0,0,1,15.84,14.2a9.042,9.042,0,0,1,.772-.721c.4-.229.373-.711.15-1.111a7.491,7.491,0,0,0-1.9-2.249.957.957,0,0,0-1.143.176l-.627.641c-1.99,2.033-1.01,4.328.98,6.361l1.819,1.858,1.819,1.858c1.99,2.033,4.236,3.034,6.226,1l.627-.641A1.011,1.011,0,0,0,24.732,20.2Z" transform="translate(-7.719 -6.355)" fill="#fff"/>
</svg>
