<svg xmlns="http://www.w3.org/2000/svg" width="22.383" height="29.851" viewBox="0 0 22.383 29.851">
  <g id="download_4_" data-name="download (4)" transform="translate(-64.065 0)">
    <path id="Path_2625" data-name="Path 2625" d="M199.252,205.533a.933.933,0,0,0-1.319,0l-1.206,1.206v-5.676a.933.933,0,0,0-1.865,0v5.676l-1.206-1.206a.933.933,0,1,0-1.319,1.319c3.007,3.007,2.861,2.9,3.1,3a.933.933,0,0,0,1.016-.2l2.8-2.8A.933.933,0,0,0,199.252,205.533Z" transform="translate(-120.538 -188.464)" fill="#ff881b"/>
    <path id="Path_2626" data-name="Path 2626" d="M170.324,402H161a.933.933,0,0,1,0-1.865h9.326a.933.933,0,0,1,0,1.865Z" transform="translate(-90.404 -376.807)" fill="#ff881b"/>
    <path id="Path_2627" data-name="Path 2627" d="M86.447,9.321a.932.932,0,0,0-.273-.646C77.257-.243,77.749.219,77.561.118c-.3-.161.549-.11-11.471-.11a2.028,2.028,0,0,0-2.026,2.026V27.826a2.028,2.028,0,0,0,2.026,2.026H84.422a2.028,2.028,0,0,0,2.026-2.026c0-.251,0-18.431,0-18.506ZM78.054,8.241V3.192L83.264,8.4c-5.419,0-5.057,0-5.081,0A.161.161,0,0,1,78.054,8.241Zm6.528,19.585a.16.16,0,0,1-.16.16H66.091a.16.16,0,0,1-.16-.16V2.034a.16.16,0,0,1,.16-.16h10.1V8.241a2.028,2.028,0,0,0,2.026,2.026h6.368Z" transform="translate(0 0)" fill="#ff881b"/>
  </g>
</svg>
