<svg xmlns="http://www.w3.org/2000/svg" width="19.945" height="19.974" viewBox="0 0 19.945 19.974">
  <g id="Group_44609" data-name="Group 44609" transform="translate(0 0)">
    <path id="Path_2934" data-name="Path 2934" d="M16.584,11.25a5.334,5.334,0,1,0,5.334,5.334A5.334,5.334,0,0,0,16.584,11.25Zm0,9.277a3.943,3.943,0,1,1,3.943-3.943,3.943,3.943,0,0,1-3.943,3.943Z" transform="translate(-1.973 -1.945)" fill="#262f6a"/>
    <path id="Path_2935" data-name="Path 2935" d="M7.512,10.061H9.367a4.748,4.748,0,0,1,1.919.4.7.7,0,1,0,.559-1.274c-.178-.078-.36-.145-.544-.206a4.407,4.407,0,1,0-5.723,0A6.271,6.271,0,0,0,1.25,14.931v1.855a.7.7,0,0,0,.7.7H8.5a.7.7,0,1,0,0-1.392H2.642v-1.16a4.876,4.876,0,0,1,4.87-4.87ZM8.44,2.639A3.015,3.015,0,1,1,5.425,5.654,3.015,3.015,0,0,1,8.44,2.639Z" transform="translate(-1.25 -1.221)" fill="#262f6a"/>
    <path id="Path_2936" data-name="Path 2936" d="M17.373,14.25h-.928a.7.7,0,1,0,0,1.392h.232v3.015a.7.7,0,0,0,1.392,0V14.946A.7.7,0,0,0,17.373,14.25Z" transform="translate(-2.298 -2.163)" fill="#262f6a"/>
  </g>
</svg>
