<svg xmlns="http://www.w3.org/2000/svg" width="20.508" height="20.508" viewBox="0 0 20.508 20.508">
  <g id="Group_10998" data-name="Group 10998" transform="translate(-395.18 -164.383)">
    <path id="Path_2711" data-name="Path 2711" d="M6.97,9.613H2.644A2.647,2.647,0,0,1,0,6.97V2.644A2.647,2.647,0,0,1,2.644,0H6.97A2.647,2.647,0,0,1,9.613,2.644V6.97A2.647,2.647,0,0,1,6.97,9.613ZM2.644,1.282A1.363,1.363,0,0,0,1.282,2.644V6.97A1.363,1.363,0,0,0,2.644,8.332H6.97A1.363,1.363,0,0,0,8.332,6.97V2.644A1.363,1.363,0,0,0,6.97,1.282Z" transform="translate(395.18 164.383)" fill="#262f6a"/>
    <path id="Path_2712" data-name="Path 2712" d="M278.97,9.613h-4.326A2.647,2.647,0,0,1,272,6.97V2.644A2.647,2.647,0,0,1,274.644,0h4.326a2.647,2.647,0,0,1,2.644,2.644V6.97A2.647,2.647,0,0,1,278.97,9.613Zm-4.326-8.332a1.363,1.363,0,0,0-1.362,1.362V6.97a1.363,1.363,0,0,0,1.362,1.362h4.326a1.363,1.363,0,0,0,1.362-1.362V2.644a1.363,1.363,0,0,0-1.362-1.362Z" transform="translate(134.074 164.383)" fill="#262f6a"/>
    <path id="Path_2713" data-name="Path 2713" d="M276.807,281.613a4.807,4.807,0,1,1,4.807-4.807A4.812,4.812,0,0,1,276.807,281.613Zm0-8.332a3.525,3.525,0,1,0,3.525,3.525A3.529,3.529,0,0,0,276.807,273.282Z" transform="translate(134.074 -96.721)" fill="#262f6a"/>
    <path id="Path_2714" data-name="Path 2714" d="M6.97,281.613H2.644A2.647,2.647,0,0,1,0,278.97v-4.326A2.647,2.647,0,0,1,2.644,272H6.97a2.647,2.647,0,0,1,2.644,2.644v4.326A2.647,2.647,0,0,1,6.97,281.613Zm-4.326-8.332a1.363,1.363,0,0,0-1.362,1.362v4.326a1.363,1.363,0,0,0,1.362,1.362H6.97a1.363,1.363,0,0,0,1.362-1.362v-4.326a1.363,1.363,0,0,0-1.362-1.362Z" transform="translate(395.18 -96.721)" fill="#262f6a"/>
  </g>
</svg>
