<svg id="PlayStore" xmlns="http://www.w3.org/2000/svg" xmlns:xlink="http://www.w3.org/1999/xlink" width="135" height="39.836" viewBox="0 0 135 39.836">
  <defs>
    <linearGradient id="linear-gradient" x1="2.472" y1="1.035" x2="2.361" y2="1.005" gradientUnits="objectBoundingBox">
      <stop offset="0" stop-color="#00a0ff"/>
      <stop offset="0.007" stop-color="#00a1ff"/>
      <stop offset="0.26" stop-color="#00beff"/>
      <stop offset="0.512" stop-color="#00d2ff"/>
      <stop offset="0.76" stop-color="#00dfff"/>
      <stop offset="1" stop-color="#00e3ff"/>
    </linearGradient>
    <linearGradient id="linear-gradient-2" x1="1.95" y1="1.879" x2="1.69" y2="1.879" gradientUnits="objectBoundingBox">
      <stop offset="0" stop-color="#ffe000"/>
      <stop offset="0.409" stop-color="#ffbd00"/>
      <stop offset="0.775" stop-color="orange"/>
      <stop offset="1" stop-color="#ff9c00"/>
    </linearGradient>
    <linearGradient id="linear-gradient-3" x1="1.926" y1="0.946" x2="1.835" y2="0.793" gradientUnits="objectBoundingBox">
      <stop offset="0" stop-color="#ff3a44"/>
      <stop offset="1" stop-color="#c31162"/>
    </linearGradient>
    <linearGradient id="linear-gradient-4" x1="1.856" y1="2.093" x2="1.897" y2="2.025" gradientUnits="objectBoundingBox">
      <stop offset="0" stop-color="#32a071"/>
      <stop offset="0.068" stop-color="#2da771"/>
      <stop offset="0.476" stop-color="#15cf74"/>
      <stop offset="0.801" stop-color="#06e775"/>
      <stop offset="1" stop-color="#00f076"/>
    </linearGradient>
  </defs>
  <path id="Path_3018" data-name="Path 3018" d="M130,39.836H5a5,5,0,0,1-5-4.979V4.979A5,5,0,0,1,5,0H130a5,5,0,0,1,5,4.979V34.856A5.006,5.006,0,0,1,130,39.836Z" fill-rule="evenodd"/>
  <path id="Path_3019" data-name="Path 3019" d="M130,.8a4.2,4.2,0,0,1,4.2,4.182V34.856a4.2,4.2,0,0,1-4.2,4.182H5A4.2,4.2,0,0,1,.8,34.856V4.979A4.2,4.2,0,0,1,5,.8Zm0-.8H5A5,5,0,0,0,0,4.979V34.856a5,5,0,0,0,5,4.979H130a5,5,0,0,0,5-4.979V4.979A5.006,5.006,0,0,0,130,0Z" fill="#a6a6a6" fill-rule="evenodd"/>
  <path id="Path_3020" data-name="Path 3020" d="M1684.333,277.74a3.031,3.031,0,0,1-2.263-.936,3.191,3.191,0,0,1-.914-2.285,3.118,3.118,0,0,1,.914-2.282,3.022,3.022,0,0,1,2.26-.936,3.062,3.062,0,0,1,2.262.936,3.307,3.307,0,0,1,0,4.565A3.006,3.006,0,0,1,1684.333,277.74Zm-26.825,0a3.142,3.142,0,0,1-2.272-.924,3.219,3.219,0,0,1,2.272-5.513,3.167,3.167,0,0,1,1.269.263,2.566,2.566,0,0,1,.966.69l.06.072-.673.661-.07-.082a1.913,1.913,0,0,0-1.562-.673,2.159,2.159,0,0,0-1.557.636,2.414,2.414,0,0,0,0,3.308,2.276,2.276,0,0,0,3.156,0,1.72,1.72,0,0,0,.457-1.036H1657.4v-.929h3.084l.013.084a3.429,3.429,0,0,1,.045.467,2.8,2.8,0,0,1-.77,2.061A3.005,3.005,0,0,1,1657.509,277.74Zm35.666-.132h-.951l-2.913-4.662.025.839v3.82h-.951v-6.172h1.085l.03.047,2.739,4.391-.025-.837v-3.6h.961Zm-15.989,0h-.964v-5.245h-1.671v-.929h4.3v.929h-1.672v5.245Zm-3.42,0h-.961v-6.174h.961Zm-5.4,0h-.961v-5.245h-1.672v-.929h4.3v.929h-1.672Zm-3.241-.01h-3.686v-6.164h3.686v.929H1662.4v1.694h2.456v.919H1662.4v1.694h2.722Zm17.653-1.433a2.127,2.127,0,0,0,1.557.646,2.073,2.073,0,0,0,1.557-.646,2.447,2.447,0,0,0,0-3.288,2.13,2.13,0,0,0-1.557-.646,2.064,2.064,0,0,0-1.555.646,2.451,2.451,0,0,0,0,3.288Z" transform="translate(-1613.215 -264.562)" fill="#fff"/>
  <path id="Path_3021" data-name="Path 3021" d="M1673.656,687.7a4.237,4.237,0,1,0,4.249,4.237A4.171,4.171,0,0,0,1673.656,687.7Zm0,6.8a2.575,2.575,0,1,1,2.389-2.568A2.452,2.452,0,0,1,1673.656,694.5Zm-9.271-6.8a4.237,4.237,0,1,0,4.249,4.237A4.171,4.171,0,0,0,1664.385,687.7Zm0,6.8a2.575,2.575,0,1,1,2.389-2.568A2.452,2.452,0,0,1,1664.385,694.5Zm-11.032-5.5v1.793h4.3a3.781,3.781,0,0,1-.974,2.258,4.391,4.391,0,0,1-3.321,1.316,4.781,4.781,0,0,1,0-9.562,4.594,4.594,0,0,1,3.241,1.284l1.271-1.272a6.253,6.253,0,0,0-4.5-1.815,6.575,6.575,0,1,0,0,13.148,6.018,6.018,0,0,0,4.592-1.848,5.95,5.95,0,0,0,1.559-4.2,5.53,5.53,0,0,0-.1-1.118h-6.075S1653.354,689,1653.354,689Zm45.123,1.4a3.936,3.936,0,0,0-3.628-2.7,4.025,4.025,0,0,0-3.994,4.237,4.141,4.141,0,0,0,4.2,4.237,4.206,4.206,0,0,0,3.529-1.88l-1.438-.964a2.409,2.409,0,0,1-2.081,1.172,2.164,2.164,0,0,1-2.059-1.284l5.665-2.347S1698.477,690.393,1698.477,690.393Zm-5.776,1.416a2.325,2.325,0,0,1,2.213-2.469,1.633,1.633,0,0,1,1.572.9Zm-4.6,4.105h1.86V683.467h-1.86Zm-3.055-7.269h-.067a2.934,2.934,0,0,0-2.235-.951,4.237,4.237,0,0,0,0,8.466,2.926,2.926,0,0,0,2.235-.964h.067v.608c0,1.617-.865,2.489-2.257,2.489a2.349,2.349,0,0,1-2.136-1.505l-1.617.676a4.044,4.044,0,0,0,3.75,2.5c2.181,0,4.028-1.284,4.028-4.416v-7.6h-1.758v.7Zm-2.136,5.854a2.576,2.576,0,0,1,0-5.134,2.382,2.382,0,0,1,2.257,2.578A2.352,2.352,0,0,1,1682.907,694.5Zm24.279-11.032h-4.448v12.448h1.86V691.2h2.59a3.873,3.873,0,1,0,0-7.734Zm.055,6H1704.6V685.19h2.645a2.136,2.136,0,1,1,0,4.272Zm11.486-1.781a3.5,3.5,0,0,0-3.321,1.9l1.649.685a1.769,1.769,0,0,1,1.694-.919,1.8,1.8,0,0,1,1.959,1.6v.132a4.165,4.165,0,0,0-1.937-.477c-1.781,0-3.586.974-3.586,2.8a2.877,2.877,0,0,0,3.087,2.744,2.618,2.618,0,0,0,2.367-1.217h.067v.964h1.793v-4.768C1722.5,688.911,1720.851,687.682,1718.728,687.682Zm-.233,6.817c-.609,0-1.46-.3-1.46-1.063,0-.964,1.063-1.329,1.97-1.329a3.229,3.229,0,0,1,1.694.42A2.239,2.239,0,0,1,1718.494,694.5Zm10.548-6.552-2.136,5.4h-.067l-2.213-5.4h-2l3.321,7.547-1.893,4.195h1.937l5.109-11.742Zm-16.744,7.967h1.86V683.467h-1.86Z" transform="translate(-1605.804 -666.037)" fill="#fff" fill-rule="evenodd"/>
  <path id="Path_3022" data-name="Path 3022" d="M400.554,299.467a2.018,2.018,0,0,0-.454,1.406v22.021a1.92,1.92,0,0,0,.464,1.393l.077.067,12.338-12.338v-.276L400.632,299.4Z" transform="translate(-390.163 -291.964)" fill-rule="evenodd" fill="url(#linear-gradient)"/>
  <path id="Path_3023" data-name="Path 3023" d="M922.415,639.019,918.3,634.9v-.288l4.115-4.115.089.055,4.868,2.767c1.393.785,1.393,2.081,0,2.876l-4.868,2.767Z" transform="translate(-895.494 -614.841)" fill-rule="evenodd" fill="url(#linear-gradient-2)"/>
  <path id="Path_3024" data-name="Path 3024" d="M435.02,806.2l-4.2-4.2L418.4,814.415a1.629,1.629,0,0,0,2.069.067L435.02,806.2" transform="translate(-408.009 -782.082)" fill-rule="evenodd" fill="url(#linear-gradient-3)"/>
  <path id="Path_3025" data-name="Path 3025" d="M435.02,295.079l-14.551-8.265a1.613,1.613,0,0,0-2.069.067l12.415,12.4Z" transform="translate(-408.009 -279.366)" fill-rule="evenodd" fill="url(#linear-gradient-4)"/>
  <path id="Path_3026" data-name="Path 3026" d="M435.32,967.7l-14.452,8.211a1.64,1.64,0,0,1-1.992.01L418.8,976l.077.067a1.644,1.644,0,0,0,1.992-.01l14.551-8.265Z" transform="translate(-408.399 -943.667)" fill-rule="evenodd" opacity="0.2"/>
  <path id="Path_3027" data-name="Path 3027" d="M1088.47,803.294l-4.969,2.821.089.089,4.868-2.767A1.744,1.744,0,0,0,1089.5,802,1.792,1.792,0,0,1,1088.47,803.294Z" transform="translate(-1056.591 -782.082)" fill-rule="evenodd" opacity="0.12"/>
  <path id="Path_3028" data-name="Path 3028" d="M402.623,286.787l19.419,11.032a1.83,1.83,0,0,1,1.041,1.294,1.744,1.744,0,0,0-1.041-1.438l-19.419-11.032c-1.393-.8-2.523-.132-2.523,1.46v.144C400.1,286.653,401.23,286,402.623,286.787Z" transform="translate(-390.163 -279.195)" fill="#fff" fill-rule="evenodd" opacity="0.25"/>
</svg>
