<svg xmlns="http://www.w3.org/2000/svg" width="15.312" height="15.312" viewBox="0 0 15.312 15.312">
  <g id="Group_44464" data-name="Group 44464" transform="translate(-79.686 -288.611)">
    <path id="Path_54" data-name="Path 54" d="M14.945,17.568h10a.789.789,0,0,0,.788-.788v-10a.789.789,0,0,0-.788-.788h-10a.789.789,0,0,0-.788.788v10A.789.789,0,0,0,14.945,17.568Zm-.26-10.789a.26.26,0,0,1,.26-.26h10a.26.26,0,0,1,.26.26v10a.26.26,0,0,1-.26.26h-10a.26.26,0,0,1-.26-.26Z" transform="translate(68.474 283.408)" fill="#ff881b"/>
    <path id="Path_55" data-name="Path 55" d="M22.3,26.438a.264.264,0,0,0,.265-.262l.018-2.957a.863.863,0,1,1,1.716.007v2.949a.264.264,0,0,0,.528,0V23.226a.872.872,0,1,1,1.734,0v2.949a.264.264,0,1,0,.528,0V23.226a1.449,1.449,0,0,0-1.4-1.5,1.356,1.356,0,0,0-1.122.619,1.331,1.331,0,0,0-2-.28V21.65a.264.264,0,1,0-.528,0v4.525a.264.264,0,0,0,.263.264Z" transform="translate(62.674 272.079)" fill="#ff881b"/>
    <path id="Path_56" data-name="Path 56" d="M43.6,16.24l.269-.3a.306.306,0,0,1,.248-.106c.235.006.332.214.341.427a.484.484,0,0,1-.131.34l-1.109,1.1a.266.266,0,0,0,.186.452h1.318a.264.264,0,1,0,0-.528H44.04l.653-.646c.594-.543.2-1.776-.664-1.666-.349,0-.617.336-.827.58a.264.264,0,1,0,.394.351Z" transform="translate(47.147 276.557)" fill="#ff881b"/>
    <path id="Path_57" data-name="Path 57" d="M18.292,17.258a.266.266,0,0,0-.057-.288l-.893-.893a.264.264,0,1,0-.373.373l.442.442H4.935a.515.515,0,0,1-.514-.514V3.9l.442.442a.264.264,0,1,0,.373-.373l-.893-.893a.266.266,0,0,0-.288-.057c-.032.013-.979.95-.979.95a.264.264,0,1,0,.373.373L3.893,3.9V16.379a1.043,1.043,0,0,0,1.042,1.042H17.411l-.442.442a.264.264,0,0,0,.373.373s.937-.946.95-.979Z" transform="translate(76.686 285.608)" fill="#ff881b"/>
  </g>
</svg>
