<svg id="Group_541" data-name="Group 541" xmlns="http://www.w3.org/2000/svg" width="17.25" height="10.995" viewBox="0 0 17.25 10.995">
  <g id="Group_540" data-name="Group 540" transform="translate(0 0)">
    <path id="Path_51" data-name="Path 51" d="M17.14,98c-.154-.211-3.826-5.162-8.515-5.162S.263,97.786.109,98a.569.569,0,0,0,0,.671c.154.211,3.826,5.162,8.515,5.162s8.361-4.951,8.515-5.162A.569.569,0,0,0,17.14,98Zm-8.515,4.7c-3.454,0-6.446-3.286-7.332-4.36.885-1.075,3.87-4.36,7.332-4.36s6.446,3.285,7.332,4.36C15.072,99.408,12.087,102.692,8.625,102.692Z" transform="translate(0 -92.835)" fill="#ff881b"/>
  </g>
</svg>
