<svg xmlns="http://www.w3.org/2000/svg" width="58" height="58" viewBox="0 0 58 58">
  <g id="Group_44697" data-name="Group 44697" transform="translate(0.103)">
    <circle id="Ellipse_101" data-name="Ellipse 101" cx="29" cy="29" r="29" transform="translate(-0.103)" fill="#f44336"/>
    <g id="paper" transform="translate(15.052 15.036)">
      <path id="Path_2887" data-name="Path 2887" d="M7.66,29.148a1.007,1.007,0,0,0,1.007,1.007h16.51a3.48,3.48,0,0,0,3.476-3.476V9.987a1.007,1.007,0,0,0-2.015,0V26.679a1.462,1.462,0,0,1-1.461,1.461H8.668A1.007,1.007,0,0,0,7.66,29.148Z" transform="translate(-1.958 -1.949)" fill="#fff"/>
      <path id="Path_2888" data-name="Path 2888" d="M12.954,15H10.767a1.007,1.007,0,1,0,0,2.015h2.186a1.007,1.007,0,0,0,0-2.015Z" transform="translate(-1.943 -1.904)" fill="#fff"/>
      <path id="Path_2889" data-name="Path 2889" d="M21.283,22.255a1.007,1.007,0,1,0,0-2.015H16.427a1.007,1.007,0,0,0,0,2.015Z" transform="translate(-1.901 -1.865)" fill="#fff"/>
      <path id="Path_2890" data-name="Path 2890" d="M16.046,9.757H10.765a1.007,1.007,0,0,0,0,2.015h5.281a1.007,1.007,0,1,0,0-2.015Z" transform="translate(-1.943 -1.943)" fill="#fff"/>
      <path id="Path_2891" data-name="Path 2891" d="M28.487,2.3,24.775,6.007l-4.1-3.744A1.136,1.136,0,0,0,19.992,2h-13A3.48,3.48,0,0,0,3.511,5.476s.018,21.587.043,21.753L2.3,28.487A1.007,1.007,0,1,0,3.72,29.911L29.911,3.72A1.007,1.007,0,1,0,28.487,2.3ZM21.881,8.9A1.443,1.443,0,0,1,21,7.581V5.29l2.35,2.143ZM5.526,5.476A1.462,1.462,0,0,1,6.987,4.015h12V7.581a3.46,3.46,0,0,0,1.424,2.793L5.526,25.256Z" transform="translate(-2 -2)" fill="#fff"/>
    </g>
  </g>
</svg>
