<svg xmlns="http://www.w3.org/2000/svg" width="87" height="76" viewBox="0 0 87 76">
  <g id="Group_44648" data-name="Group 44648" transform="translate(-424.34 -142)">
    <g id="Group_44734" data-name="Group 44734" transform="translate(424.34 142)">
      <rect id="Rectangle_1039" data-name="Rectangle 1039" width="87" height="76" rx="8" fill="#262f6a" opacity="0.1"/>
      <g id="megaphone_1_" data-name="megaphone (1)" transform="translate(19 12)">
        <path id="Path_2830" data-name="Path 2830" d="M34.235,21.532C29.254,14.2,22.6,10.309,19.117,12.7a4.019,4.019,0,0,0-.985.991c0,.028-8.066,16.351-8.066,16.351l-4.5,3.051a6.36,6.36,0,0,0-1.689,8.837l.2.3a6.371,6.371,0,0,0,8.8,1.689l7.233,10.655a4.105,4.105,0,0,0,5.628,1.081,3.81,3.81,0,0,0,1.689-2.589,4.03,4.03,0,0,0-.625-3.039l-6.371-9.4s15.062-1.2,15.118-1.221a3.608,3.608,0,0,0,1.311-.563c1.79-1.216,2.431-3.765,1.812-7.182a27.541,27.541,0,0,0-4.435-10.12ZM5.716,41.114l-.2-.3a4.385,4.385,0,0,1,1.171-6.1l3.889-2.645,5.133,7.559-3.889,2.645a4.39,4.39,0,0,1-6.1-1.165ZM25.179,51.126a2.082,2.082,0,0,1-3.456,2.325L14.513,42.83l2.9-1.97.765-.062ZM17.57,38.868l-5.595-8.24,5.336-10.88A27.086,27.086,0,0,0,21.763,30a27.173,27.173,0,0,0,7.88,7.919Zm16.6-1.311c-2.69-.174-7.069-3.208-10.778-8.673s-4.914-10.638-4.086-13.21a2.4,2.4,0,0,1,2.251-1.689c2.668,0,7.21,3.051,11.026,8.673a24.013,24.013,0,0,1,4.143,9.366C37.567,37.556,34.173,37.556,34.173,37.556Z" transform="translate(-2.776 -5.3)" fill="#262f6a"/>
        <path id="Path_2831" data-name="Path 2831" d="M42.726,29.233a5.285,5.285,0,0,0-4.007.827.989.989,0,0,0,1.126,1.627,3.377,3.377,0,0,1,3.794,5.589.985.985,0,0,0,.563,1.8.962.962,0,0,0,.563-.169,5.341,5.341,0,0,0-2-9.67Z" transform="translate(-18.302 -12.793)" fill="#262f6a"/>
        <path id="Path_2832" data-name="Path 2832" d="M60.144,9.483h.1a.985.985,0,0,0,.979-.884l.76-7.384a.985.985,0,1,0-1.959-.2L59.266,8.4a.985.985,0,0,0,.878,1.081Z" transform="translate(-27.468 -0.1)" fill="#262f6a"/>
        <path id="Path_2833" data-name="Path 2833" d="M76.715,13.726a.991.991,0,0,0-1.368-.281l-6.861,4.5a.985.985,0,0,0,.563,1.807,1,1,0,0,0,.563-.158l6.861-4.5a.985.985,0,0,0,.242-1.368Z" transform="translate(-31.308 -5.863)" fill="#262f6a"/>
        <path id="Path_2834" data-name="Path 2834" d="M80.079,34.3,72.1,32.868a.986.986,0,0,0-.349,1.942l7.975,1.435H79.9a.985.985,0,0,0,.174-1.959Z" transform="translate(-32.573 -14.418)" fill="#262f6a"/>
      </g>
    </g>
  </g>
</svg>
