<svg xmlns="http://www.w3.org/2000/svg" width="74" height="73" viewBox="0 0 74 73">
  <g id="Layer_x0020_1" transform="translate(0.071 -0.468)">
    <ellipse id="Ellipse_92" data-name="Ellipse 92" cx="37" cy="36.5" rx="37" ry="36.5" transform="translate(-0.071 0.468)" fill="#f38f41"/>
    <path id="Path_2874" data-name="Path 2874" d="M655.55,724.544a.652.652,0,0,1-.651-.651v-7.764h-5.407a2.674,2.674,0,0,1-2.671-2.671V687.371a2.674,2.674,0,0,1,2.671-2.671h36.353a2.674,2.674,0,0,1,2.671,2.671v26.087a2.674,2.674,0,0,1-2.671,2.671H665.058l-9.07,8.246A.654.654,0,0,1,655.55,724.544Zm12.118-13.935a2.73,2.73,0,1,1,2.73-2.73A2.733,2.733,0,0,1,667.668,710.609Zm0-6.973a2.843,2.843,0,0,1-2.773-2.725l-.715-9.275a1.353,1.353,0,0,1,1.365-1.417h4.247a1.354,1.354,0,0,1,1.365,1.417l-.715,9.275A2.844,2.844,0,0,1,667.668,703.636Z" transform="translate(-630.656 -668.08)" fill="#fff" fill-rule="evenodd"/>
  </g>
</svg>
