<svg id="Layer_8" xmlns="http://www.w3.org/2000/svg" width="88.152" height="96.959" viewBox="0 0 88.152 96.959">
  <path id="Path_2879" data-name="Path 2879" d="M66.026,39.948A9.988,9.988,0,0,0,58.9,35.54L47.2,34.106V22.593a8.866,8.866,0,1,0-17.732,0V39.512l-3.237-2A8.711,8.711,0,0,0,15.109,50.673L29.67,67.208a8.667,8.667,0,0,0,6.494,2.933h18.3a8.7,8.7,0,0,0,8.318-6.26l4.506-15.656a9.986,9.986,0,0,0-1.266-8.276Zm-4.768,6.536L56.753,62.14a2.39,2.39,0,0,1-2.284,1.723h-18.3a2.382,2.382,0,0,1-1.786-.806L19.818,46.526a2.431,2.431,0,0,1,3.1-3.676l8.025,4.97a3.139,3.139,0,0,0,4.792-2.668V22.6a2.591,2.591,0,1,1,5.183,0V36.886A3.142,3.142,0,0,0,43.681,40l14.46,1.772a3.713,3.713,0,0,1,3.118,4.708Z" transform="translate(20.469 26.817)" fill="#262f6a"/>
  <path id="Path_2880" data-name="Path 2880" d="M18.337,41.94a3.139,3.139,0,1,0,6.278,0V40.308c6.564-1.869,7.526-6.229,7.582-8.332.112-4.377-3.265-7.38-10.034-8.922-4.7-1.067-5.134-2.215-5.1-2.658.171-2.532,5.263-2.992,7.624-2.926a3.139,3.139,0,1,0,6.278,0A6.45,6.45,0,0,0,29,12.849a6.135,6.135,0,0,0-4.384-1.775v-.792a3.139,3.139,0,1,0-6.278,0v1.643c-6.048,1.719-7.373,5.559-7.54,8.043-.31,4.534,3.048,7.631,9.975,9.2,5.043,1.147,5.155,2.487,5.151,2.637-.07,2.686-6.25,3.045-7.624,3.045h0a.114.114,0,0,1-.042-.094,3.139,3.139,0,0,0-6.278,0,6.35,6.35,0,0,0,1.957,4.607,6.477,6.477,0,0,0,4.408,1.8v.771Z" transform="translate(15.085 10.446)" fill="#ff881b"/>
  <path id="Path_2881" data-name="Path 2881" d="M27.745,66.365a30.277,30.277,0,1,1,42.32-30.814,3.139,3.139,0,0,0,6.247-.631A36.569,36.569,0,1,0,25.226,72.112a3.089,3.089,0,0,0,1.256.265,3.139,3.139,0,0,0,1.263-6.013Z" transform="translate(-3.362 -2.1)" fill="#262f6a"/>
</svg>
