<svg id="Layer_56" data-name="Layer 56" xmlns="http://www.w3.org/2000/svg" width="13.313" height="14.337" viewBox="0 0 13.313 14.337">
  <path id="Path_2884" data-name="Path 2884" d="M5.048,7.12a.512.512,0,0,1,.512-.512h4.1a.512.512,0,1,1,0,1.024H5.56A.512.512,0,0,1,5.048,7.12ZM16.313,4.56V14.8a1.536,1.536,0,0,1-1.536,1.536H4.536A1.536,1.536,0,0,1,3,14.8V4.56A1.536,1.536,0,0,1,4.536,3.024H6.072A1.024,1.024,0,0,1,7.1,2h5.12A1.024,1.024,0,0,1,13.24,3.024h1.536A1.536,1.536,0,0,1,16.313,4.56ZM7.1,4.048h5.12V3.024H7.1Zm8.192.512a.512.512,0,0,0-.512-.512H13.24a1.024,1.024,0,0,1-1.024,1.024H7.1A1.024,1.024,0,0,1,6.072,4.048H4.536a.512.512,0,0,0-.512.512V14.8a.512.512,0,0,0,.512.512h10.24a.512.512,0,0,0,.512-.512Zm-2.56,4.608H5.56a.512.512,0,1,0,0,1.024h7.168a.512.512,0,0,0,0-1.024Zm0,2.56H5.56a.512.512,0,1,0,0,1.024h7.168a.512.512,0,1,0,0-1.024Z" transform="translate(-3 -2)" fill="#ff881b"/>
</svg>
