<svg xmlns="http://www.w3.org/2000/svg" width="202.578" height="65.408" viewBox="0 0 202.578 65.408">
  <g id="Group_2" data-name="Group 2" transform="translate(-276 -285)">
    <g id="Group_36" data-name="Group 36" transform="translate(276 289.678)">
      <path id="Path_34" data-name="Path 34" d="M4769.5,943.528a25.544,25.544,0,1,1,49.038,0,2.224,2.224,0,0,1-3.708.947l-.146-.146a2.183,2.183,0,0,1-.568-2.187,20.918,20.918,0,1,0-40.205,0,2.17,2.17,0,0,1-.565,2.182l-.146.146a2.222,2.222,0,0,1-3.706-.947Zm39.359,14.1-13.27,13.27a2.231,2.231,0,0,1-3.147,0l-13.271-13.271a2.231,2.231,0,0,1,0-3.143l.129-.128a2.23,2.23,0,0,1,3.143,0l10,9.995a2.232,2.232,0,0,0,3.147,0l10-9.995a2.231,2.231,0,0,1,3.149,0l.127.128a2.229,2.229,0,0,1,0,3.143Z" transform="translate(-4768.03 -910.82)" fill="#ff881b"/>
      <path id="Path_35" data-name="Path 35" d="M4760.594,1284.063l23.765-23.764a2.23,2.23,0,0,1,3.147,0l23.765,23.764a2.232,2.232,0,0,1,0,3.148l-.127.128a2.231,2.231,0,0,1-3.143,0l-20.494-20.493a2.23,2.23,0,0,0-3.147,0l-20.493,20.492a2.231,2.231,0,0,1-3.143,0l-.129-.128a2.231,2.231,0,0,1,0-3.148Z" transform="translate(-4759.944 -1241.166)" fill="#fff"/>
      <path id="Path_36" data-name="Path 36" d="M5161.436,1566.149h2.148a1,1,0,0,1,1,.994v2.149a1,1,0,0,1-1,1h-2.148a1,1,0,0,1-1-.995v-2.149a1,1,0,0,1,1-.994m5.368,5.317h2.148a1,1,0,0,1,1,1v2.149a1,1,0,0,1-1,.995H5166.8a1,1,0,0,1-1-.995v-2.149a1,1,0,0,1,1-1m-5.368,0h2.148a1,1,0,0,1,1,.995v2.149a1,1,0,0,1-1,.995h-2.148a1,1,0,0,1-1-.995v-2.149a1,1,0,0,1,1-1m5.368-5.317h2.149a1,1,0,0,1,.995.994v2.149a1,1,0,0,1-.995.995H5166.8a1,1,0,0,1-1-.995v-2.149a1,1,0,0,1,1-.994" transform="translate(-5139.207 -1531.405)" fill="#fff"/>
    </g>
    <g id="Group_1" data-name="Group 1" transform="translate(340.023 285)">
      <text id="عـــــــقــــــاراتــكـــــــمـــ" transform="translate(0.556 57)" fill="#ff881b" font-size="17" font-family="SST Arabic" font-weight="700" letter-spacing="0.02em"><tspan x="0" y="0">عـــــــقــــــاراتــكـــــــمـــ</tspan></text>
      <text id="Aqaratikom" transform="translate(-0.444 31)" fill="#fff" font-size="24" font-family="Co Headline" font-weight="700" letter-spacing="0.02em"><tspan x="0" y="0">Aqaratkom</tspan></text>
    </g>
  </g>
</svg>
