<svg id="medal" xmlns="http://www.w3.org/2000/svg" width="14.05" height="17.46" viewBox="0 0 14.05 17.46">
  <path id="Path_2869" data-name="Path 2869" d="M64,15.594l-2.662-4.57a1.06,1.06,0,0,0,.809-.375c.221-.324.06-.641.125-.985.1-.534.982-.455,1.023-1.148.018-.309-.188-.535-.243-.82s.14-.376.311-.581c.483-.576.218-.957-.189-1.461-.171-.212-.157-.275-.063-.525.124-.331.289-.668.088-1.008a1.569,1.569,0,0,0-.653-.485c-.3-.171-.271-.28-.265-.608.015-.8-.378-.964-1.083-1.1-.566-.106-.365-.857-.858-1.139a1.294,1.294,0,0,0-.912-.015c-.326.06-.371.015-.572-.233-.485-.6-.881-.627-1.54-.239-.234.137-.31.162-.549.028a1.385,1.385,0,0,0-.9-.324c-.562.1-.635.869-1.2.779-.727-.116-1.141-.073-1.4.676-.092.269-.085.385-.368.458a2.226,2.226,0,0,0-.813.212c-.556.392-.031,1.165-.527,1.468-.253.155-.555.247-.715.517a1.056,1.056,0,0,0,.068.96c.113.29.133.371-.076.609s-.475.5-.441.864c.031.328.281.527.474.767s.127.351.015.639A.893.893,0,0,0,50.965,9c.2.207.64.267.785.5s-.035.68.052.946c.132.408.514.525.906.574l-2.662,4.57a.342.342,0,0,0,.447.471l1.765-.865.127,1.948a.344.344,0,0,0,.636.147L55.6,12.858a.806.806,0,0,0,.822-.008c.173-.083.4-.328.6-.328s.431.245.587.322a.81.81,0,0,0,.833.014h0l2.584,4.437a.344.344,0,0,0,.636-.147l.127-1.948,1.765.865A.342.342,0,0,0,64,15.594Zm-11.013.4-.087-1.34a.345.345,0,0,0-.491-.281l-1.215.6,2.051-3.52,0,.005c.13.42.317.791.811.823.389.025.776-.289,1.057.065Zm5.579-4.268c-.127.121-.33.527-.51.575-.344.012-.643-.451-1.037-.451a1.191,1.191,0,0,0-.584.2c-.111.064-.309.256-.45.249-.288-.073-.458-.611-.761-.748a1.108,1.108,0,0,0-.662-.035c-.138.024-.385.138-.52.082-.115-.082-.144-.36-.187-.48a1.169,1.169,0,0,0-.312-.525c-.293-.247-.843-.085-1.084-.313-.068-.1-.015-.325-.013-.444a1.155,1.155,0,0,0-.148-.722c-.188-.27-.746-.342-.873-.607-.027-.119.1-.309.141-.418a1.15,1.15,0,0,0,.112-.732c-.081-.309-.594-.586-.61-.87.017-.286.529-.56.61-.87a1.083,1.083,0,0,0-.083-.663c-.048-.129-.2-.344-.17-.484.129-.269.684-.337.874-.61a1.079,1.079,0,0,0,.151-.648c0-.137-.071-.4.009-.516.238-.23.792-.071,1.086-.315s.23-.812.5-1c.114-.049.325.041.442.063a1.19,1.19,0,0,0,.745-.02c.3-.135.473-.673.755-.746.343-.012.643.451,1.037.451s.7-.466,1.034-.451c.285.071.46.611.758.746a1.112,1.112,0,0,0,.672.036c.136-.024.38-.136.513-.081.27.192.207.761.5,1s.842.085,1.084.313c.069.1.015.326.014.444a1.153,1.153,0,0,0,.148.722c.189.271.745.341.873.607.026.119-.1.308-.141.418a1.15,1.15,0,0,0-.112.732c.081.309.594.586.61.87-.017.286-.529.56-.61.87a1.082,1.082,0,0,0,.083.663c.048.129.2.344.17.484-.126.268-.686.339-.874.61a1.079,1.079,0,0,0-.151.648c0,.137.071.4-.009.516-.242.23-.791.07-1.086.315s-.228.81-.5,1c-.171.072-.491-.087-.667-.105a.9.9,0,0,0-.766.232Zm3.065,2.648a.346.346,0,0,0-.491.281l-.087,1.34-2.127-3.651c.282-.357.666-.04,1.057-.066.493-.032.681-.4.811-.823l0-.005,2.051,3.52Z" transform="translate(-50 0)" fill="#ff881b"/>
  <path id="Path_2870" data-name="Path 2870" d="M139.144,78.486a4.089,4.089,0,1,1,4.126-4.089A4.112,4.112,0,0,1,139.144,78.486Zm0-7.5a3.414,3.414,0,1,0,3.444,3.414A3.433,3.433,0,0,0,139.144,70.983Z" transform="translate(-132.119 -67.91)" fill="#ff881b"/>
  <path id="Path_2871" data-name="Path 2871" d="M193.825,131.955a.343.343,0,0,1-.165-.042l-1-.547-1.022.506a.344.344,0,0,1-.359-.033.336.336,0,0,1-.129-.333l.216-1.111-.8-.806a.335.335,0,0,1-.079-.348.34.34,0,0,1,.28-.224l1.134-.14.526-1a.343.343,0,0,1,.612.012l.485,1.025,1.128.185a.34.34,0,0,1,.271.235.335.335,0,0,1-.093.344l-.835.773.171,1.119a.336.336,0,0,1-.142.327A.344.344,0,0,1,193.825,131.955Zm-1.158-1.308a.344.344,0,0,1,.165.042l.553.3-.094-.618a.336.336,0,0,1,.1-.3l.461-.427-.623-.1a.341.341,0,0,1-.253-.19l-.268-.566-.291.555a.341.341,0,0,1-.261.18l-.627.077.443.445a.335.335,0,0,1,.092.3l-.119.614.565-.28A.343.343,0,0,1,192.667,130.647Z" transform="translate(-185.674 -123.336)" fill="#ff881b"/>
</svg>
