<svg id="user-add" xmlns="http://www.w3.org/2000/svg" width="19.768" height="19.768" viewBox="0 0 19.768 19.768">
  <path id="Path_3066" data-name="Path 3066" d="M21.766,10.471H20.118V8.824a.824.824,0,1,0-1.647,0v1.647H16.824a.824.824,0,1,0,0,1.647h1.647v1.647a.824.824,0,1,0,1.647,0V12.118h1.647a.824.824,0,0,0,0-1.647Z" transform="translate(-2.821 -1.411)" fill="#262f6a"/>
  <path id="Path_3067" data-name="Path 3067" d="M7.942,9.884A4.942,4.942,0,1,0,3,4.942,4.942,4.942,0,0,0,7.942,9.884Zm0-8.237A3.295,3.295,0,1,1,4.647,4.942,3.295,3.295,0,0,1,7.942,1.647Z" transform="translate(-0.529)" fill="#262f6a"/>
  <path id="Path_3068" data-name="Path 3068" d="M7.413,14A7.421,7.421,0,0,0,0,21.413a.824.824,0,1,0,1.647,0,5.766,5.766,0,1,1,11.531,0,.824.824,0,0,0,1.647,0A7.421,7.421,0,0,0,7.413,14Z" transform="translate(0 -2.469)" fill="#262f6a"/>
</svg>
