<svg id="location_2_" data-name="location (2)" xmlns="http://www.w3.org/2000/svg" width="21.929" height="25.809" viewBox="0 0 21.929 25.809">
  <g id="Group_879" data-name="Group 879" transform="translate(2.924)">
    <g id="Group_878" data-name="Group 878" transform="translate(0)">
      <path id="Path_2628" data-name="Path 2628" d="M99.041,0A8.174,8.174,0,0,0,91,8.317a8.5,8.5,0,0,0,1.5,4.839l5.92,9.556a.718.718,0,0,0,1.231,0l5.946-9.589a8.477,8.477,0,0,0,1.479-4.807A8.192,8.192,0,0,0,99.041,0Zm0,12.1a3.724,3.724,0,0,1-3.655-3.781,3.657,3.657,0,1,1,7.31,0A3.724,3.724,0,0,1,99.041,12.1Z" transform="translate(-91 0)" fill="#262f6a"/>
    </g>
  </g>
  <g id="Group_881" data-name="Group 881" transform="translate(0 17.375)">
    <g id="Group_880" data-name="Group 880">
      <path id="Path_2629" data-name="Path 2629" d="M47.679,344.7,44,350.648a2.374,2.374,0,0,1-4.068,0L36.243,344.7c-3.244.776-5.243,2.2-5.243,3.9,0,2.947,5.649,4.537,10.964,4.537s10.964-1.59,10.964-4.537C52.929,346.892,50.926,345.47,47.679,344.7Z" transform="translate(-31 -344.695)" fill="#262f6a"/>
    </g>
  </g>
</svg>
