<svg id="Group_44205" data-name="Group 44205" xmlns="http://www.w3.org/2000/svg" width="87" height="87" viewBox="0 0 87 87">
  <rect id="Rectangle_13" data-name="Rectangle 13" width="87" height="87" rx="8" transform="translate(0)" fill="#262f6a" opacity="0.2"/>
  <g id="location_3_" data-name="location (3)" transform="translate(19 19)">
    <path id="_x36_" d="M47.454,98.485a.764.764,0,0,1-.76.771.773.773,0,0,1-.771-.771v-9.65a2.256,2.256,0,0,1,.738-1.66,2.494,2.494,0,0,1,1.7-.662h8.976a2.469,2.469,0,0,1,1.7.662,2.259,2.259,0,0,1,.739,1.66v9.65a.764.764,0,0,1-.76.771.773.773,0,0,1-.771-.771v-9.65a.739.739,0,0,0-.239-.542,1,1,0,0,0-.673-.25H53.619V98.485a.764.764,0,0,1-.759.771.773.773,0,0,1-.771-.771V88.043H48.366a1,1,0,0,0-.662.25.75.75,0,0,0-.25.542v9.65Z" transform="translate(-28.354 -53.333)" fill="#262f6a"/>
    <path id="_x35_" d="M43.062,44.767h5.014a.755.755,0,0,1,.76.76v4.668a.754.754,0,0,1-.76.759H43.062a.755.755,0,0,1-.76-.759V45.527a.755.755,0,0,1,.76-.76Zm0-9.28h5.014a.755.755,0,0,1,.76.76v4.667a.755.755,0,0,1-.76.76H43.062a.755.755,0,0,1-.76-.76V36.247A.755.755,0,0,1,43.062,35.487Zm4.244,1.531H43.832v3.125h3.473Zm8.379,3.125a.764.764,0,0,1,.759.771.755.755,0,0,1-.759.76H53.177a.765.765,0,0,1-.771-.76V36.247a.764.764,0,0,1,.771-.76.755.755,0,0,1,.76.76v3.9Zm-2.507,4.624h5a.764.764,0,0,1,.771.76v4.668a.763.763,0,0,1-.771.759h-5a.764.764,0,0,1-.771-.759V45.527a.765.765,0,0,1,.771-.76ZM57.421,46.3H53.937v3.126h3.484Zm-10.116,0H43.832v3.126h3.473Z" transform="translate(-26.121 -21.877)" fill="#262f6a"/>
    <path id="_x34_" d="M83.234,23.509a.763.763,0,0,1-1.042.271.873.873,0,0,1-.282-.282L75.333,12.352a8.309,8.309,0,1,1,15.283-1.964,8.116,8.116,0,0,1-.782,1.954Zm-.651-1.889,5.926-10.04a6.618,6.618,0,0,0,.63-1.574A6.774,6.774,0,1,0,75.811,8.3a7.227,7.227,0,0,0,.206,1.7,7.114,7.114,0,0,0,.618,1.552Z" transform="translate(-45.835 0)" fill="#262f6a"/>
    <path id="_x33_" d="M88.812,10.1a4.436,4.436,0,1,1-4.428,4.428,4.367,4.367,0,0,1,1.291-3.126A4.421,4.421,0,0,1,88.812,10.1Zm2.04,2.377a2.883,2.883,0,1,0,.857,2.051A2.889,2.889,0,0,0,90.853,12.48Z" transform="translate(-52.063 -6.228)" fill="#262f6a"/>
    <path id="_x32_" d="M40.4,94.75a.763.763,0,0,1-.759-.771.755.755,0,0,1,.759-.76h2.779a2.333,2.333,0,0,1,2.171,1.433l3.593,8.748a2.2,2.2,0,0,1,.163,1.107,2.323,2.323,0,0,1-2.333,2.051H2.465a2.339,2.339,0,0,1-2.344-2.051A2.46,2.46,0,0,1,.284,103.4l3.6-8.748a2.332,2.332,0,0,1,2.171-1.433H8.815a.756.756,0,0,1,.76.76.764.764,0,0,1-.76.771H6.058a.778.778,0,0,0-.76.488l-3.593,8.748a.7.7,0,0,0-.065.359.834.834,0,0,0,.423.6.945.945,0,0,0,.4.087H46.771a.864.864,0,0,0,.391-.087.778.778,0,0,0,.423-.6.693.693,0,0,0-.054-.359l-3.593-8.748a.777.777,0,0,0-.76-.488Z" transform="translate(-0.112 -57.467)" fill="#262f6a"/>
    <path id="_x31_" d="M54.58,41.7a.774.774,0,0,1,.771-.771.764.764,0,0,1,.76.771V60.051a.764.764,0,0,1-.76.771H30.864a.764.764,0,0,1-.76-.771V26.5a2.257,2.257,0,0,1,.738-1.661,2.48,2.48,0,0,1,1.7-.673h12.08a.771.771,0,0,1,0,1.541H32.546a.953.953,0,0,0-.673.25.739.739,0,0,0-.239.543V59.29H54.58V41.7Z" transform="translate(-18.601 -14.899)" fill="#262f6a"/>
  </g>
</svg>
