<svg id="Group_44325" data-name="Group 44325" xmlns="http://www.w3.org/2000/svg" width="87" height="87" viewBox="0 0 87 87">
  <rect id="Rectangle_13" data-name="Rectangle 13" width="87" height="87" rx="8" transform="translate(0)" fill="#262f6a" opacity="0.2"/>
  <path id="marketing_1_" data-name="marketing (1)" d="M52.016,50.59a4.023,4.023,0,0,0-3.208-3.966V40.618a2.507,2.507,0,0,0-1.221-2.175,2.4,2.4,0,0,0-2.453-.021c-.575.33-1.153.671-1.765,1.033-1.722,1.016-3.565,2.1-5.479,3.02V31.013l.486.361a3.948,3.948,0,0,0,2.36.786,4,4,0,0,0,3.278-1.706,4.189,4.189,0,0,0-.9-5.76l-18.3-13.583a3.946,3.946,0,0,0-4.8-.045L1.663,24.693a4.112,4.112,0,0,0-1.618,2.69,4.168,4.168,0,0,0,.718,3.071A4,4,0,0,0,3.4,32.107,3.944,3.944,0,0,0,6.4,31.374h0l.485-.36V46.891A5.454,5.454,0,0,0,12.275,52.4h9.346a6.1,6.1,0,0,0,5.786,4.327h.705v5.833a3.784,3.784,0,0,0,3.739,3.82h1a.9.9,0,0,0,.894-.913V56.921c4.11.935,7.687,3.1,11.282,5.424a2.39,2.39,0,0,0,2.508.079,2.5,2.5,0,0,0,1.277-2.207v-5.66a4.024,4.024,0,0,0,3.208-3.967ZM5.352,29.895a2.2,2.2,0,0,1-1.674.409,2.228,2.228,0,0,1-1.467-.921,2.322,2.322,0,0,1-.4-1.711,2.292,2.292,0,0,1,.9-1.5L21.068,12.544a2.226,2.226,0,0,1,2.679.029l.015.011,18.3,13.588a2.334,2.334,0,0,1,.5,3.21,2.221,2.221,0,0,1-3.14.513L22.914,17.637a.878.878,0,0,0-1.051,0Zm3.323,17v-17.2L22.388,19.5,36.1,29.686V43.264a20.646,20.646,0,0,1-3.347,1.054H27.639V36.076A3.045,3.045,0,0,0,24.631,33H20.146a3.045,3.045,0,0,0-3.008,3.074V50.57H12.275a3.645,3.645,0,0,1-3.6-3.679Zm12.662,3.63c0,.017,0,.033,0,.049H18.925V36.076a1.235,1.235,0,0,1,1.22-1.247H24.63a1.235,1.235,0,0,1,1.22,1.247v8.449A6.192,6.192,0,0,0,21.337,50.521Zm1.788,0a4.335,4.335,0,0,1,4.283-4.376h4.546V54.9H27.407a4.335,4.335,0,0,1-4.283-4.376Zm8.726,14.029A1.975,1.975,0,0,1,29.9,62.557V56.724h2.053v7.826ZM47.02,60.217a.661.661,0,0,1-.351.607.634.634,0,0,1-.69-.022c-3.848-2.491-7.686-4.8-12.239-5.749V45.961c3.789-.952,7.354-3.055,10.522-4.925.608-.359,1.182-.7,1.748-1.022a.627.627,0,0,1,.675.006.656.656,0,0,1,.336.6Zm1.788-7.552v-4.15a2.225,2.225,0,0,1,0,4.15ZM57.2,50.59a.9.9,0,0,1-.894.913H54.147a.914.914,0,0,1,0-1.827h2.158A.9.9,0,0,1,57.2,50.59Zm-2.84,5.367a.927.927,0,0,1,0,1.292.88.88,0,0,1-1.264,0l-1.526-1.56a.927.927,0,0,1,0-1.292.881.881,0,0,1,1.264,0Zm-2.551-9.276a.927.927,0,0,1,0-1.292l1.526-1.56a.88.88,0,0,1,1.264,0,.927.927,0,0,1,0,1.292l-1.526,1.56a.88.88,0,0,1-1.264,0Z" transform="translate(15.006 4.726)" fill="#262f6a"/>
</svg>
