<svg id="Group_44323" data-name="Group 44323" xmlns="http://www.w3.org/2000/svg" width="87" height="87" viewBox="0 0 87 87">
  <rect id="Rectangle_11" data-name="Rectangle 11" width="87" height="87" rx="8" fill="#262f6a" opacity="0.2"/>
  <path id="real-estate" d="M53.777,37.1a4.544,4.544,0,0,0-4.854-2.209V18.913l.619.5a1.268,1.268,0,0,0,.806.287c.035,0,.07-.009.1-.011s.044.011.067.011a1.28,1.28,0,0,0,.808-2.272l-2.876-2.339,0,0L30.812.743a1.6,1.6,0,0,0-1.787,0L8.506,17.431A1.279,1.279,0,0,0,9.435,19.7a1.271,1.271,0,0,0,.859-.281l.619-.5v14.23a19.849,19.849,0,0,0-4.828,3.028L1.129,38.7a1.308,1.308,0,0,0-.64.759,1.293,1.293,0,0,0,.094.989L7.3,53.018a1.229,1.229,0,0,0,.793.631,1.126,1.126,0,0,0,.333.051,1.265,1.265,0,0,0,.674-.2L14.1,50.391c.017-.009.026-.026.043-.034s.043-.017.06-.026a1.424,1.424,0,0,1,1.348-.009c6.065,3.224,9.793,3.941,11.917,3.941a8.074,8.074,0,0,0,1.245-.094c1.237-.068,12.19-.921,23.509-11.456l.921-.921a3.9,3.9,0,0,0,.631-4.692Zm-40.3-20.269L29.918,3.454,46.364,16.83V36.1L43.72,37.586c-1.877,1.049-3.566,2.09-5.118,3.165-.256.171-.495.35-.742.52a2.59,2.59,0,0,0,.2-.52,2.487,2.487,0,0,0,0-1.476,2.768,2.768,0,0,0-1.45-1.638V26.352a6.733,6.733,0,0,0-1.953-4.734,6.643,6.643,0,0,0-5.161-1.945,6.818,6.818,0,0,0-6.261,6.9v6.491a13.33,13.33,0,0,0-9.758-.853ZM34.047,36.956c-.128-.017-.256-.026-.384-.034-6.372-.427-7.566-1.612-7.686-1.74-.06-.068-.119-.136-.188-.2v-8.4a4.3,4.3,0,0,1,3.864-4.342,4.123,4.123,0,0,1,3.182,1.186,4.174,4.174,0,0,1,1.211,2.934ZM8.908,50.612,3.449,40.393l2.858-1.467,5.417,9.929Zm42.4-10.6-.87.862q-1.049.972-2.1,1.843l-.009.009c-.119.094-.239.2-.358.29-10.083,8.163-19.346,8.6-19.449,8.6l-.2.026c-1.075.2-4.367.264-11.575-3.566a3.984,3.984,0,0,0-1.877-.478,4.358,4.358,0,0,0-.81.085l-2.815-5.246a2.655,2.655,0,0,1-.188-.341L8.576,37.459a18.534,18.534,0,0,1,2.337-1.45,15.809,15.809,0,0,1,2.559-1.083,11.044,11.044,0,0,1,9.085.665,4.591,4.591,0,0,1,.674.469,6.531,6.531,0,0,1,.819.8,4.708,4.708,0,0,0,1.74,1.177,24.3,24.3,0,0,0,7.7,1.442c.2.017.384.034.554.051A3.17,3.17,0,0,1,35.608,40a1.549,1.549,0,0,1-.529.751,3.838,3.838,0,0,1-.324.29,4.866,4.866,0,0,1-.708.486,12.531,12.531,0,0,1-8.539,1.3,13.606,13.606,0,0,1-1.894-.512,1.053,1.053,0,0,0-.358-.06,1.264,1.264,0,0,0-1.186.648,1.24,1.24,0,0,0-.145.409,1.308,1.308,0,0,0,.461,1.211,3.184,3.184,0,0,0,.64.316,9.986,9.986,0,0,0,2.585.6c9.213.8,13.529-1.979,13.529-1.979l.23-.145,4.1-2.559,1.5-.938,1.39-.785L48.556,37.8a.544.544,0,0,0,.119-.068,1.491,1.491,0,0,1,.247-.154,1.989,1.989,0,0,1,2.61.751,1.477,1.477,0,0,1-.222,1.68Z" transform="translate(17.002 15.185)" fill="#262f6a"/>
</svg>
