<svg xmlns="http://www.w3.org/2000/svg" width="87" height="87" viewBox="0 0 87 87">
  <g id="Group_44324" data-name="Group 44324" transform="translate(0)">
    <rect id="Rectangle_11" data-name="Rectangle 11" width="87" height="87" rx="8" transform="translate(0)" fill="#262f6a" opacity="0.2"/>
    <g id="keys" transform="translate(22.62 13.92)">
      <path id="Path_2835" data-name="Path 2835" d="M29.484,36a.984.984,0,0,1,.984.984v1.231a.984.984,0,1,1-1.969,0V36.984A.984.984,0,0,1,29.484,36Z" transform="translate(-25.054 -21.971)" fill="#262f6a"/>
      <path id="Path_2836" data-name="Path 2836" d="M23.469,7.5A1.969,1.969,0,0,0,21.5,9.469V25.22a1.969,1.969,0,0,0,1.969,1.969h5.168a1.969,1.969,0,0,0,1.969-1.969h1.106a4.036,4.036,0,0,1,3.021,1.5,14.086,14.086,0,0,0,3.788,3.311,10.957,10.957,0,0,0,3.258,1.061l.458.083a14.638,14.638,0,0,1,2.454.595c1.461.926,3.765,2.3,5.61,3.391a3.782,3.782,0,0,0,3.931-.045V37.35a6.893,6.893,0,0,0-2.215,12.926V50.9a1.969,1.969,0,0,0,.577,1.392l.307.307-.427.512a1.969,1.969,0,0,0-.456,1.261v1.386a1.892,1.892,0,0,0,.816,1.6l-.359.431a1.969,1.969,0,0,0-.456,1.261V61.4a1.969,1.969,0,0,0,1.969,1.969h1.241a1.969,1.969,0,0,0,1.554-.76L58,61.04a1.971,1.971,0,0,0,.415-1.209V50.276A6.893,6.893,0,0,0,56.2,37.35V34.7a5.969,5.969,0,0,0,2.453,1.7,1.818,1.818,0,0,0,2.4-1.318L63.7,22.993a1.969,1.969,0,0,0-.511-1.792l-7.818-8.048a1.969,1.969,0,0,0-.861-.518L43.077,9.3a1.97,1.97,0,0,0-.551-.079H30.591A1.969,1.969,0,0,0,28.637,7.5ZM50.3,44.172a4.924,4.924,0,0,1,3.938-4.824v3.347a.984.984,0,1,0,1.969,0V39.348a4.924,4.924,0,0,1,.792,9.416.984.984,0,0,0-.554.541c-.044.107.008,10.527.008,10.527L55.229,61.4H53.988V59.049l.359-.431a1.952,1.952,0,0,0-.359-2.859V54.373l.427-.512a1.969,1.969,0,0,0-.12-2.653l-.307-.307v-.823h0a.984.984,0,0,0-.546-1.314A4.925,4.925,0,0,1,50.3,44.172ZM30.606,11.192v12.06h1.106a6,6,0,0,1,4.521,2.194,12.266,12.266,0,0,0,3.193,2.838,9.018,9.018,0,0,0,2.712.874l.419.076a16.748,16.748,0,0,1,2.793.682,1.927,1.927,0,0,1,.393.191c1.432.907,3.712,2.269,5.56,3.36a1.828,1.828,0,0,0,2.655-.98,2.075,2.075,0,0,0-.983-2.437A21.89,21.89,0,0,1,47.9,26.218a6.286,6.286,0,0,1-1.552-2.688,3.549,3.549,0,0,1,.715-3.1,3.164,3.164,0,0,1,3.048-1.234A6.925,6.925,0,0,1,53.03,20.5a22.444,22.444,0,0,1,3.918,3.768,1.928,1.928,0,0,1,.419,1.5l-.62,4.462a4.016,4.016,0,0,0,2.427,4.257l2.6-11.911-7.819-8.048L42.525,11.192ZM23.469,9.469h5.168V25.22H23.469ZM55.415,25.507l-.5,3.594a4.171,4.171,0,0,0-.958-.759,20.019,20.019,0,0,1-4.6-3.446,4.38,4.38,0,0,1-1.094-1.815,1.587,1.587,0,0,1,.346-1.437,1.205,1.205,0,0,1,1.232-.5,5.045,5.045,0,0,1,2.052.965,20.479,20.479,0,0,1,3.523,3.4Z" transform="translate(-21.5 -7.5)" fill="#262f6a" fill-rule="evenodd"/>
      <path id="Path_2837" data-name="Path 2837" d="M59.293,72.941a.984.984,0,1,0,.048-1.968,6.893,6.893,0,0,0-6.753,8.921l-.443.44a1.969,1.969,0,0,0-.581,1.39v.433l-.664.058a1.969,1.969,0,0,0-1.216.564l-.983.976a1.837,1.837,0,0,0-.56,1.706l-.559.049a1.972,1.972,0,0,0-1.216.565l-1.668,1.657a1.968,1.968,0,0,0-.01,2.784l.875.881a1.968,1.968,0,0,0,1.635.567l1.972-.24a1.968,1.968,0,0,0,1.15-.558l6.78-6.733a6.91,6.91,0,0,0,5.041-.349.984.984,0,0,0-.847-1.778,4.94,4.94,0,0,1-4.124.051l-.941-.42-.376.958h0l-6.92,6.872-1.972.24-.875-.881,1.668-1.657.559-.049a1.922,1.922,0,0,0,1.776-2.27l.983-.976.664-.058a1.969,1.969,0,0,0,1.8-1.955c0-1.018.585-1.013.585-1.013h0l.961-.369-.413-.944a4.924,4.924,0,0,1,4.63-6.9Z" transform="translate(-32.982 -39.728)" fill="#262f6a"/>
    </g>
  </g>
</svg>
