<svg xmlns="http://www.w3.org/2000/svg" width="87" height="87" viewBox="0 0 87 87">
  <g id="Group_44752" data-name="Group 44752" transform="translate(-678 -1210)">
    <rect id="Rectangle_1134" data-name="Rectangle 1134" width="87" height="87" rx="8" transform="translate(678 1210)" fill="#262f6a" opacity="0.2"/>
    <g id="Group_44748" data-name="Group 44748" transform="translate(182 1202)">
      <g id="budget" transform="translate(515 27)">
        <g id="Group_44679" data-name="Group 44679">
          <g id="Group_44678" data-name="Group 44678">
            <path id="Path_2971" data-name="Path 2971" d="M43.065,15.874h-3.5V8.985A4.474,4.474,0,0,0,38.328,5.9L36.066,3.535C34.146,1.557,33.9,1,32.761.443A4.473,4.473,0,0,0,30.824,0H14.3A4.468,4.468,0,0,0,9.838,4.463V28.531H8.9A2.573,2.573,0,0,0,7.07,32.917a2.565,2.565,0,0,0-.748,1.812,2.642,2.642,0,0,0,.051.509A6.491,6.491,0,0,0,7.3,48.18l12.7,0a2.573,2.573,0,0,0,1.827-4.387,2.561,2.561,0,0,0,.744-1.684h.966v.516a5.95,5.95,0,0,0,5.944,5.944H43.065a5.95,5.95,0,0,0,5.944-5.944v-20.8A5.95,5.95,0,0,0,43.065,15.874ZM36.992,6.714l0,0h0l0,0h0l.006.006,0,0,0,0,0,0,0,0H33.193V2.7ZM8.9,30.057H20a1.049,1.049,0,1,1,0,2.1H8.9a1.049,1.049,0,1,1,0-2.1Zm0,3.624H20a1.049,1.049,0,1,1,0,2.1H12.33a6.213,6.213,0,0,0-.966-.349,6.431,6.431,0,0,0-1.526-.224c-.15,0-.3,0-.449,0H7.965a1.031,1.031,0,0,1-.117-.48A1.051,1.051,0,0,1,8.9,33.68Zm12.149,4.673A1.05,1.05,0,0,1,20,39.4H15.728a6.418,6.418,0,0,0-1.3-2.1H20A1.051,1.051,0,0,1,21.046,38.353ZM5.185,36.984a6.583,6.583,0,0,0-1.2,1.541H3.1A5.038,5.038,0,0,1,5.185,36.984Zm-2.9,2.971H3.394A6.586,6.586,0,0,0,3.187,41.1H2.013A5.013,5.013,0,0,1,2.283,39.955Zm.123,3.781a5.009,5.009,0,0,1-.359-1.207H3.213a5.757,5.757,0,0,0,.273,1.207Zm.952,1.43c.468,0,.74,0,.8,0a6.442,6.442,0,0,0,1.026,1.242A5.04,5.04,0,0,1,3.358,45.167Zm6.509,1.584a5.061,5.061,0,1,1,3.206-8.784A5.057,5.057,0,0,1,9.868,46.751ZM20,46.65H13.84a6.535,6.535,0,0,0,1.639-2.1H20a1.049,1.049,0,0,1,0,2.1Zm1.04-4.545a1.049,1.049,0,0,1-1.04.921H16.005a6.554,6.554,0,0,0,.092-2.1H20A1.05,1.05,0,0,1,21.038,42.1Zm2.5-1.526H22.157a2.531,2.531,0,0,0-.333-.414,2.569,2.569,0,0,0,0-3.624,2.569,2.569,0,0,0,0-3.624A2.577,2.577,0,0,0,20,28.531H11.364V4.463A2.941,2.941,0,0,1,14.3,1.526H31.668V7.5a.763.763,0,0,0,.763.763h5.518c.159.618.061.414.091,7.609H29.478a5.951,5.951,0,0,0-5.944,5.944V40.579Zm24.045,2.042a4.518,4.518,0,0,1-4.514,4.514H29.478a4.519,4.519,0,0,1-4.514-4.514v-20.8A4.519,4.519,0,0,1,29.478,17.3H43.066a4.518,4.518,0,0,1,4.514,4.514v20.8Z" transform="translate(-0.549)" fill="#262f6a"/>
          </g>
        </g>
        <g id="Group_44681" data-name="Group 44681" transform="translate(26.578 18.927)">
          <g id="Group_44680" data-name="Group 44680">
            <path id="Path_2972" data-name="Path 2972" d="M296.644,199.538H283.158a2.4,2.4,0,0,0-2.4,2.4v2.618a2.4,2.4,0,0,0,2.4,2.4h2.595a.715.715,0,1,0,0-1.43h-2.595a.974.974,0,0,1-.971-.971v-2.618a.974.974,0,0,1,.971-.971h13.486a.972.972,0,0,1,.971.971v2.618a.972.972,0,0,1-.971.971h-7.807a.715.715,0,1,0,0,1.43h7.807a2.4,2.4,0,0,0,2.4-2.4v-2.618A2.4,2.4,0,0,0,296.644,199.538Z" transform="translate(-280.757 -199.538)" fill="#262f6a"/>
          </g>
        </g>
        <g id="Group_44683" data-name="Group 44683" transform="translate(26.578 33.998)">
          <g id="Group_44682" data-name="Group 44682">
            <path id="Path_2973" data-name="Path 2973" d="M284.7,358.428h-2.444a1.5,1.5,0,0,0-1.5,1.5v2.443a1.5,1.5,0,0,0,1.5,1.5H284.7a1.5,1.5,0,0,0,1.5-1.5v-2.443A1.5,1.5,0,0,0,284.7,358.428Zm.067,3.94a.067.067,0,0,1-.067.067h-2.444a.067.067,0,0,1-.067-.067v-2.443a.067.067,0,0,1,.067-.067H284.7a.067.067,0,0,1,.067.067Z" transform="translate(-280.757 -358.428)" fill="#262f6a"/>
          </g>
        </g>
        <g id="Group_44685" data-name="Group 44685" transform="translate(39.507 27.609)">
          <g id="Group_44684" data-name="Group 44684">
            <path id="Path_2974" data-name="Path 2974" d="M421,291.068h-2.443a1.5,1.5,0,0,0-1.5,1.5v2.443a1.5,1.5,0,0,0,1.5,1.5H421a1.5,1.5,0,0,0,1.5-1.5v-2.443A1.5,1.5,0,0,0,421,291.068Zm.067,3.94a.066.066,0,0,1-.067.067h-2.443a.067.067,0,0,1-.067-.067c.03-2.417-.062-2.51.067-2.51H421a.066.066,0,0,1,.067.067Z" transform="translate(-417.056 -291.068)" fill="#262f6a"/>
          </g>
        </g>
        <g id="Group_44687" data-name="Group 44687" transform="translate(26.578 27.609)">
          <g id="Group_44686" data-name="Group 44686">
            <path id="Path_2975" data-name="Path 2975" d="M284.7,291.068h-2.444a1.5,1.5,0,0,0-1.5,1.5v2.443a1.5,1.5,0,0,0,1.5,1.5H284.7a1.5,1.5,0,0,0,1.5-1.5v-2.443A1.5,1.5,0,0,0,284.7,291.068Zm.067,3.94a.067.067,0,0,1-.067.067h-2.444a.067.067,0,0,1-.067-.067v-2.443a.067.067,0,0,1,.067-.067H284.7a.067.067,0,0,1,.067.067Z" transform="translate(-280.757 -291.068)" fill="#262f6a"/>
          </g>
        </g>
        <g id="Group_44689" data-name="Group 44689" transform="translate(26.576 40.074)">
          <g id="Group_44688" data-name="Group 44688">
            <path id="Path_2976" data-name="Path 2976" d="M285.795,423a1.5,1.5,0,0,0-1.121-.5H282.23a1.493,1.493,0,0,0-1.12.5,2.046,2.046,0,0,0-.378,1.526v1.91a1.5,1.5,0,0,0,1.5,1.5h2.444a1.5,1.5,0,0,0,1.5-1.5v-1.91A2.063,2.063,0,0,0,285.795,423Zm-1.121,3.5c-2.415-.03-2.511.062-2.511-.067,0-2.587-.029-2.51.067-2.51h2.444c.117,0,.045.163.067.6A10.164,10.164,0,0,1,284.674,426.5Z" transform="translate(-280.73 -422.491)" fill="#262f6a"/>
          </g>
        </g>
        <g id="Group_44691" data-name="Group 44691" transform="translate(39.507 33.998)">
          <g id="Group_44690" data-name="Group 44690">
            <path id="Path_2977" data-name="Path 2977" d="M420.616,358.428h-1.684a1.879,1.879,0,0,0-1.877,1.877v7.588a2.051,2.051,0,0,0,2.048,2.049h1.341a2.051,2.051,0,0,0,2.048-2.049V360.3A1.879,1.879,0,0,0,420.616,358.428Zm-.172,10.084H419.1a.619.619,0,0,1-.618-.619V360.3a.447.447,0,0,1,.446-.446h1.684a.447.447,0,0,1,.446.446v7.588h0A.618.618,0,0,1,420.444,368.512Z" transform="translate(-417.055 -358.428)" fill="#262f6a"/>
          </g>
        </g>
        <g id="Group_44693" data-name="Group 44693" transform="translate(15.381 15.868)">
          <g id="Group_44692" data-name="Group 44692">
            <path id="Path_2978" data-name="Path 2978" d="M165.737,172.2c-.872-.32-1.5-.552-1.5-1.36,0-.736.489-1.11,1.453-1.11,1.024,0,1.3.451,1.66.451a.687.687,0,0,0,.61-.7c0-.6-.972-.891-1.841-.969v-.537a.678.678,0,1,0-1.355,0v.623a2.217,2.217,0,0,0-1.841,2.318c0,1.665,1.226,2.125,2.21,2.5.964.362,1.726.649,1.726,1.75,0,.909-.5,1.37-1.5,1.37-1.458,0-1.471-.984-2.027-.984a.715.715,0,0,0-.622.7c0,.564.839,1.3,2.054,1.5v.519a.678.678,0,0,0,1.355,0v-.533a2.448,2.448,0,0,0,2.054-2.645C168.171,173.09,166.821,172.594,165.737,172.2Z" transform="translate(-162.707 -167.288)" fill="#262f6a"/>
          </g>
        </g>
        <g id="Group_44695" data-name="Group 44695" transform="translate(33.002 40.074)">
          <g id="Group_44694" data-name="Group 44694">
            <path id="Path_2979" data-name="Path 2979" d="M353.455,422.911a1.491,1.491,0,0,0-1.038-.42h-2.444a1.5,1.5,0,0,0-1.121.5,2.054,2.054,0,0,0-.377,1.526v1.91a1.5,1.5,0,0,0,1.5,1.5h2.444a1.5,1.5,0,0,0,1.5-1.5v-2.444A1.492,1.492,0,0,0,353.455,422.911Zm-1.038,3.587c-2.415-.03-2.511.062-2.511-.067v-2.444a.067.067,0,0,1,.067-.066h2.444a.066.066,0,0,1,.066.066C352.455,426.408,352.545,426.5,352.418,426.5Z" transform="translate(-348.474 -422.491)" fill="#262f6a"/>
          </g>
        </g>
        <g id="Group_44697" data-name="Group 44697" transform="translate(33.004 27.609)">
          <g id="Group_44696" data-name="Group 44696">
            <path id="Path_2980" data-name="Path 2980" d="M352.44,291.068H350a1.5,1.5,0,0,0-1.5,1.5v2.443a1.5,1.5,0,0,0,1.5,1.5h2.444a1.473,1.473,0,0,0,.545-.1,1.5,1.5,0,0,0,.952-1.394v-2.443A1.5,1.5,0,0,0,352.44,291.068Zm0,4.007H350a.067.067,0,0,1-.067-.067v-2.443c0-.129.089-.038,2.511-.067a.066.066,0,0,1,.066.067v2.443h0A.066.066,0,0,1,352.44,295.075Z" transform="translate(-348.499 -291.068)" fill="#262f6a"/>
          </g>
        </g>
        <g id="Group_44699" data-name="Group 44699" transform="translate(33.004 33.998)">
          <g id="Group_44698" data-name="Group 44698">
            <path id="Path_2981" data-name="Path 2981" d="M352.985,358.531a1.475,1.475,0,0,0-.545-.1H350a1.5,1.5,0,0,0-1.5,1.5v2.443a1.5,1.5,0,0,0,1.5,1.5h2.444a1.5,1.5,0,0,0,1.5-1.5v-2.443A1.5,1.5,0,0,0,352.985,358.531Zm-.479,3.837a.066.066,0,0,1-.066.067H350a.067.067,0,0,1-.067-.067v-2.443a.067.067,0,0,1,.067-.067h2.444a.066.066,0,0,1,.066.067Z" transform="translate(-348.499 -358.428)" fill="#262f6a"/>
          </g>
        </g>
        <g id="Group_44701" data-name="Group 44701" transform="translate(30.305 9.774)">
          <g id="Group_44700" data-name="Group 44700">
            <path id="Path_2982" data-name="Path 2982" d="M322.559,103.041h-1.8a.715.715,0,0,0,0,1.43h1.8a.715.715,0,1,0,0-1.43Z" transform="translate(-320.047 -103.041)" fill="#262f6a"/>
          </g>
        </g>
        <g id="Group_44703" data-name="Group 44703" transform="translate(14.761 9.774)">
          <g id="Group_44702" data-name="Group 44702">
            <path id="Path_2983" data-name="Path 2983" d="M169.568,103.041H156.885a.715.715,0,1,0,0,1.43h12.683a.715.715,0,1,0,0-1.43Z" transform="translate(-156.17 -103.041)" fill="#262f6a"/>
          </g>
        </g>
        <g id="Group_44705" data-name="Group 44705" transform="translate(14.761 13.324)">
          <g id="Group_44704" data-name="Group 44704">
            <path id="Path_2984" data-name="Path 2984" d="M159.159,140.472h-2.273a.715.715,0,0,0,0,1.43h2.273a.715.715,0,1,0,0-1.43Z" transform="translate(-156.17 -140.472)" fill="#262f6a"/>
          </g>
        </g>
        <g id="Group_44707" data-name="Group 44707" transform="translate(19.895 13.324)">
          <g id="Group_44706" data-name="Group 44706">
            <path id="Path_2985" data-name="Path 2985" d="M223.221,140.472H211.014a.715.715,0,0,0,0,1.43h12.206a.715.715,0,1,0,0-1.43Z" transform="translate(-210.299 -140.472)" fill="#262f6a"/>
          </g>
        </g>
        <g id="Group_44709" data-name="Group 44709" transform="translate(7.144 37.879)">
          <g id="Group_44708" data-name="Group 44708">
            <path id="Path_2986" data-name="Path 2986" d="M77.414,401.8c0-.18.066-.231.128-.266a1.229,1.229,0,0,1,1.037.07.818.818,0,0,0,.387.118c.705,0,1.263-1.311-.422-1.6v-.045a.725.725,0,0,0-1.45,0v.138a1.626,1.626,0,0,0-1.105,1.629c0,1.22.886,1.553,1.533,1.8.617.232.831.333.831.753,0,.262-.071.505-.584.505-.748,0-.658-.591-1.218-.591a.747.747,0,0,0-.691.741c0,.5.515.966,1.234,1.156v.054a.725.725,0,1,0,1.45,0v-.073a1.792,1.792,0,0,0,1.234-1.835C79.778,402.171,77.414,402.5,77.414,401.8Z" transform="translate(-75.861 -399.347)" fill="#262f6a"/>
          </g>
        </g>
      </g>
    </g>
  </g>
</svg>
